<svg width="89" height="41" viewBox="0 0 89 41" xmlns="http://www.w3.org/2000/svg" xmlns:sketch="http://www.bohemiancoding.com/sketch/ns"><title>Untitled</title><desc>Created with Sketch.</desc><g sketch:type="MSLayerGroup" fill="#fff"><path d="M25.795 6.489c.265.053.318.184.344.342.026.158.185 1.316.185 4.817v4.554c0 2.685-.132 4.37-.185 4.765-.026.395-.133.579-1.351.789-.026 0-.106.053-.106.106-.027.21 0 .763.053.789 2.119-.079 4.213-.184 6.332-.184 2.199 0 4.054.027 4.848.053.874.027 1.06.027 1.245.027.132 0 .212-.053.345-.211.344-.764.768-2.448.821-3.659 0-.131 0-.158-.079-.21-.265-.027-.53-.053-.636-.027-.821 2.79-2.305 3.08-5.404 3.08-2.172 0-3.1-.132-3.471-.632-.265-.421-.265-1.132-.265-3.053 0-2.159.159-3.08.238-3.238.079-.105.159-.131.265-.158.159-.026.424-.053 1.749-.053 1.351 0 2.225 0 2.808.053 1.06.079 1.377.316 1.536 1.027.08.316.212.736.318 1.026.053.106.106.184.239.159.186 0 .397-.027.609-.079-.08-.763-.159-1.501-.185-2.396 0-.816.159-2.027.212-2.79-.132-.027-.742.026-.848.105-.344 1.553-.477 1.658-2.066 1.764-.663.052-1.563.079-2.755.079h-1.696c-.185 0-.344-.184-.344-.421-.026-1.843-.053-3.685-.053-5.528 0-.606.053-.869.397-.974.292-.079 1.166-.131 2.729-.131h1.828c2.067 0 2.252.947 2.623 2.843.026.158.133.237.821.237 0-.684.026-2.211.239-3.369.106-.474.106-.474-.133-.632-.132-.079-.291-.132-.636-.132-1.324.026-3.259.158-4.874.158h-2.57c-1.616-.026-2.623-.079-3.444-.079h-.928c-.132 0-.132.027-.132.131l-.053.606.026.105c.636.158 1.139.237 1.404.342" sketch:type="MSShapeGroup"/><path d="M44.088 6.455c.053-.211.133-.369.371-.474.371-.184.875-.289 1.775-.289 2.385 0 3.947 1.79 3.947 3.817v.027c0 1.105-.45 2.132-1.086 2.895-.848 1-2.093 1.29-4.159 1.29-.397 0-.715-.027-.848-.079-.106-.079-.185-.158-.185-2.632-.026-2.395.053-3.738.185-4.554m-2.411.764c.026 1.263.053 3.159.053 4.685v3.106c0 3.185-.053 5.318-.344 5.739-.186.369-.98.526-1.51.632 0 .158.027.631.159.763.027.053.079.053.424.053.265 0 .768-.079 1.722-.079 1.086 0 3.258.027 3.55.027.265 0 .344 0 .371-.053.053-.105.185-.552.185-.684-.609-.158-1.775-.316-2.04-.579-.132-.079-.238-.289-.265-.685-.08-1.527-.106-3.08-.106-5.08 0-.211.185-.342.344-.395.212-.052.503-.079 1.272-.079 1.642 0 1.934.236 2.543 1.447.901 1.711 1.722 3.185 2.835 4.265 1.354 1.251 3.378 2.223 5.135 2.102l-.002.019c2.12-.079 4.745-.279 6.865-.279 2.199 0 4.053.027 4.848.053.874.027 1.06.027 1.245.027.133 0 .212-.053.344-.211.345-.764.768-2.448.821-3.659 0-.131 0-.158-.079-.21-.265-.027-.53-.053-.636-.027-.821 2.79-2.305 3.08-5.405 3.08-2.172 0-3.099-.132-3.471-.632-.265-.421-.265-1.132-.265-3.053 0-2.159.159-3.08.238-3.238.079-.106.159-.132.265-.158.16-.027.425-.053 1.749-.053 1.352 0 2.226 0 2.808.053 1.06.078 1.378.316 1.536 1.027.081.316.213.736.318 1.026.053.106.106.184.239.159.186 0 .398-.027.61-.079-.079-.763-.16-1.501-.186-2.396 0-.816.158-2.027.212-2.79-.132-.027-.742.027-.847.105-.345 1.553-.477 1.658-2.066 1.764-.663.052-1.564.079-2.756.079h-1.695c-.186 0-.344-.184-.344-.421-.027-1.843-.053-3.685-.053-5.528 0-.606.053-.869.397-.974.292-.079 1.166-.131 2.728-.131h1.829c2.065 0 2.25.947 2.621 2.843.027.158.132.237.821.237 0-.684.027-2.211.239-3.369.106-.474.106-.474-.132-.632-.132-.079-.292-.132-.636-.132-1.325.026-3.259.158-4.875.158h-2.569c-1.616-.026-2.623-.079-3.444-.079h-.928c-.132 0-.132.027-.132.131l-.053.606.027.105c.636.158 1.139.237 1.404.342.265.053.318.184.344.342.027.158.185 1.316.185 4.817v4.554c0 2.685-.132 4.37-.185 4.765-.026.395-.132.579-1.351.789-1.735.007-3.811-2-5.03-3.869-1.139-1.737-1.695-3.29-1.828-3.843-.053-.184.026-.316.185-.395 1.007-.579 2.808-1.816 2.808-3.896 0-1.263-.636-2.553-1.881-3.422-1.377-.974-3.02-1.185-4.609-1.185-.715 0-1.43.027-2.649.105-1.139.106-2.358.106-3.736.132-.079.053-.132.106-.106.184l.079.606c1.695.421 1.828.553 1.854 1.369" sketch:type="MSShapeGroup"/><path d="M78.395 8.482c.079-.158.264-.21.318-.105.821 2.106 1.351 3.659 2.384 6.449.052.131-.027.369-.213.369-.715.026-1.457.052-2.702.052-1.192 0-1.749-.052-1.907-.052h-.027c-.344 0-.504-.184-.476-.29 1.033-2.685 1.378-3.554 2.623-6.423m-7.578 13.899c.106.027.529 0 .981 0 .555 0 2.065 0 3.364.027.107-.079.239-.579.213-.737-1.326-.394-1.537-.605-1.537-1.185 0-.711.875-2.975 1.139-3.527.213-.447.345-.527.663-.553 1.563-.078 3.814-.105 5.722-.105.211 0 .371.211.45.395.345.842 1.192 2.974 1.324 3.501.318 1.027.132 1.211-1.218 1.58-.028.052.078.526.132.685.026.052.079.078.186.078.239.027.979-.078 1.828-.078.874 0 1.404 0 3.603.026.106-.079.265-.789.212-.789-1.51-.289-1.881-.763-2.437-2.001-.345-.816-2.491-5.791-3.338-8.134-.928-2.474-1.484-3.79-2.279-6.344-.079-.263-.133-.395-.318-.395h-.026c-.239 0-.689.184-.796.237-.104.052-.132.078-.158.211-.16.421-.318.868-.61 1.579-1.536 3.633-4.558 11.03-5.298 12.478-.716 1.343-.981 1.922-2.119 2.238-.053.078.025.578.132.736.026.053.053.079.185.079" sketch:type="MSShapeGroup"/><path d="M11.523 11.265c.416-.379 1.56-.448 2.808-.448 1.699 0 3.19.103 4.438 1.309 1.283 1.137 1.664 2.584 1.664 4.03 0 2.996-1.928 4.618-4.5 5.088-.756-.277-2.247-.543-3.558-.543l-.325.006-.077-.072c-.763-.758-.763-.896-.763-7.269 0-1.619.173-1.894.312-2.101m.034-9.405c.035-.31.139-.379.52-.448.624-.207 1.422-.275 1.699-.275 1.768 0 2.843.516 3.606 1.24.763.758 1.352 1.688 1.352 3.101v.034c0 1.619-.694 3.032-1.907 3.756-.659.344-1.907.447-2.358.447-.52 0-1.318 0-1.873-.068-.866-.104-1.04-.173-1.144-.965-.035-.483-.069-2.102-.069-3.824 0-1.895.104-2.722.173-2.997m6.036 33.756c-.149-.116-.209-.057-.238.058-.239.611-.627 1.337-1.402 2.093-.894.873-2.117 1.745-4.293 1.745-6.679 0-8.468-5.379-8.468-8.547 0-2.936.894-5.146 2.057-6.542 1.61-1.832 3.668-2.675 5.725-2.675 1.417 0 2.563.313 3.303.62.218.138.406.237.565.273l.158.096c.566.378.716.697.924 1.221.179.581.417 1.366.537 1.831.059.175.119.204.536.117.179-.029.447-.088.447-.146-.108-1.15-.103-2.312.127-3.319.384-.072.768-.166 1.128-.291 2.878-1.033 5.062-2.962 5.062-6.097 0-3.618-2.808-5.547-5.305-6.029-.208-.035-.278-.276-.104-.379.312-.173.971-.448 1.803-1.068 1.352-.999 1.768-2.239 1.768-3.789 0-2.101-1.733-3.479-2.912-3.961-1.803-.724-3.675-.827-5.166-.827-1.456 0-4.091.172-5.235.241-1.144.069-1.872.103-2.254.103l-.347.93c2.115.655 2.219.827 2.254 1.654.069 1.103.069 3.273.069 5.788v5.305c0 1.206-.035 2.79-.139 5.34-.035 1.24-.104 1.447-1.04 1.895-.312.172-.833.376-1.308.634v.004c-1.143.452-2.279 1.089-3.191 2.064-2.028 2.181-2.564 4.826-2.564 6.832v.029c0 4.593 3.221 9.798 11.182 9.798 1.58 0 3.846-.465 4.771-.494.238-.029.358-.088.536-.349.388-.581 1.103-2.239 1.431-3.547.03-.203-.119-.436-.417-.611" sketch:type="MSShapeGroup"/><path d="M25.886 38.313c-1.314 0-2.549-.488-3.844-1.793-1.079-1.091-1.726-2.67-1.726-4.481 0-1.228.294-3.001 1.333-4.19 1-1.072 1.981-1.423 2.922-1.423h.02c1.628 0 2.863.722 3.648 1.559 1.353 1.461 1.824 3.196 1.824 4.949 0 3.644-2.157 5.378-4.177 5.378m-.667-12.588h-.02c-1.706 0-3.471.662-4.706 1.773-1.53 1.364-2.197 3.098-2.197 4.735 0 1.597.647 3.332 1.647 4.423 1.333 1.481 3.589 2.417 5.668 2.417 1.059 0 2.824-.448 4.177-1.773 1.039-1.013 2.216-2.787 2.216-5.203 0-3.566-3.236-6.371-6.785-6.371" sketch:type="MSShapeGroup"/><path d="M41.575 35.793h-.02c-.059 0-.078.019-.098.097-.137.604-.294.974-.51 1.306-.647.994-1.903 1.033-3.197 1.033-.883 0-1.49-.039-1.824-.156-.235-.059-.353-.214-.373-.488-.02-.351-.039-.954-.059-4.033l-.019-2.378c-.02-1.578.039-2.864.098-3.43.098-.799.569-.896 1.746-1.032 0-.156-.059-.527-.138-.586-1.02.039-2.059.098-3.06.117-.627.019-1.235 0-1.824 0-.039 0-.059 0-.078.097l-.157.351c-.039.117.02.234.078.234 1.392-.019 1.549.059 1.608.506.059.428.098 1.481.098 3.137v3.995c0 1.988-.059 2.709-.137 2.981-.157.585-.647.76-1.608.877-.019.117.098.527.157.605l.373-.02c.274-.019 1.235-.117 2.295-.117 3.314 0 4.275.059 5.079.059.824 0 1.039 0 1.235-.02.157-.02.294-.098.333-.292.137-.838.353-1.675.588-2.475.019-.078.019-.136-.059-.214-.098-.059-.451-.156-.529-.156" sketch:type="MSShapeGroup"/><path d="M52.093 35.793h-.02c-.059 0-.078.019-.097.097-.138.604-.295.974-.51 1.306-.647.994-1.903 1.033-3.196 1.033-.883 0-1.491-.039-1.824-.156-.235-.059-.353-.214-.373-.488-.02-.351-.039-.954-.059-4.033l-.019-2.378c-.02-1.578.039-2.864.098-3.43.098-.799.569-.896 1.745-1.032 0-.156-.059-.527-.137-.586-1.02.039-2.06.098-3.06.117-.628.019-1.236 0-1.824 0-.039 0-.059 0-.078.097l-.157.351c-.039.117.02.234.078.234 1.392-.019 1.549.059 1.608.506.059.428.098 1.481.098 3.137v3.995c0 1.988-.059 2.709-.137 2.981-.157.585-.647.76-1.608.877-.019.117.098.527.157.605l.373-.02c.275-.019 1.235-.117 2.295-.117 3.314 0 4.275.059 5.079.059.824 0 1.04 0 1.236-.02.157-.02.294-.098.333-.292.137-.838.353-1.675.587-2.475.02-.078.02-.136-.058-.214-.099-.059-.452-.156-.53-.156" sketch:type="MSShapeGroup"/><path d="M63.298 35.91c-.608 2.066-1.707 2.28-4.001 2.28-1.609 0-2.295-.098-2.57-.468-.196-.312-.196-.838-.196-2.26 0-1.598.118-2.28.176-2.397.059-.078.118-.097.196-.117.118-.02.314-.039 1.294-.039 1 0 1.648 0 2.079.039.784.058 1.02.234 1.137.76.059.233.157.545.236.76.038.078.078.135.176.116.137 0 .294-.019.451-.058-.059-.565-.118-1.111-.138-1.773 0-.604.117-1.501.157-2.066-.098-.019-.55.02-.627.078-.256 1.15-.353 1.228-1.53 1.306-.49.039-1.157.059-2.04.059h-1.255c-.138 0-.255-.137-.255-.312-.019-1.364-.039-2.728-.039-4.092 0-.449.039-.643.295-.721.215-.059.862-.097 2.02-.097h1.353c1.53 0 1.667.701 1.942 2.104.019.117.097.175.607.175 0-.506.021-1.636.178-2.494.078-.351.078-.351-.099-.467-.098-.059-.215-.098-.471-.098-.981.02-2.411.117-3.609.117h-1.902l-2.549-.059h-.686c-.099 0-.099.019-.099.097l-.039.449.02.078c.47.117.843.175 1.039.253.197.039.236.136.256.253.019.117.138.974.138 3.566v3.371c0 1.987-.099 3.234-.138 3.527-.02.292-.099.429-1 .585l-.078.078c-.021.155 0 .564.04.584 1.568-.058 3.117-.137 4.687-.137 1.627 0 3.001.019 3.588.039.647.02.785.02.922.02.097 0 .157-.039.254-.156.255-.565.569-1.812.608-2.709 0-.097 0-.117-.06-.156-.196-.019-.392-.039-.47-.019" sketch:type="MSShapeGroup"/><path d="M75.553 32.292c-.843 0-1.725-.078-2.844-.078-.058 0-.097.058-.097.156.019.117.039.273.097.37.039.058.138.097.217.136l1.254.175c.687.117.745.351.745 2.222 0 1.383-.176 2.28-.53 2.533-.293.234-1.058.448-1.647.448-1.019 0-3.157-.234-4.666-1.695-1.314-1.267-1.667-2.864-1.667-4.151 0-2.436 1.136-3.956 2.019-4.754 1.098-.955 2.255-1.228 3.354-1.228 2.196 0 3.47 1.15 4.001 2.553.058.136.136.156.196.156h.273c.138 0 .178-.02.217-.059.019-.059.019-.234-.02-.448-.098-.487-.216-1.481-.275-2.747 0-.098-.059-.137-.099-.137l-.392-.019c-.157 0-.176 0-.215.058l-.176.293c-.019.059-.098.039-.196 0-.746-.234-1.884-.351-2.51-.351-.628 0-1.884.058-3.06.39-1.334.371-2.314.799-3.158 1.578-1.216 1.111-1.96 2.612-1.96 4.599v.019c0 2.046.784 3.624 1.922 4.676 1.372 1.286 3.236 1.949 5.805 1.949.785 0 1.392-.058 2.098-.117.785-.058 1.099-.058 1.55-.058.078 0 .373-.02.549-.176.196-.175.295-.311.295-.681 0-3.293.097-4.677.136-4.833l.765-.097c.039-.117.079-.721.039-.76-.314 0-.981.078-2.02.078" sketch:type="MSShapeGroup"/><path d="M88.85 35.929c-.196-.019-.393-.039-.471-.019-.608 2.066-1.706 2.28-4.001 2.28-1.609 0-2.295-.098-2.568-.467-.197-.312-.197-.838-.197-2.261 0-1.598.118-2.28.178-2.396.059-.078.117-.098.196-.117.117-.02.314-.039 1.293-.039 1 0 1.647 0 2.079.039.785.058 1.02.233 1.138.76.058.233.157.545.235.76.039.078.079.136.176.117.137 0 .295-.019.451-.058-.059-.565-.118-1.111-.138-1.773 0-.604.118-1.501.157-2.066-.099-.019-.549.02-.628.078-.254 1.149-.353 1.228-1.53 1.305-.49.039-1.157.059-2.039.059h-1.256c-.136 0-.254-.137-.254-.312-.019-1.364-.039-2.728-.039-4.092 0-.449.039-.643.293-.721.217-.059.863-.097 2.02-.097h1.353c1.531 0 1.667.701 1.942 2.104.019.117.099.175.608.175 0-.506.019-1.636.176-2.494.078-.351.078-.351-.098-.467-.097-.059-.216-.098-.471-.098-.979.02-2.412.117-3.608.117h-1.903l-2.549-.058h-.687c-.097 0-.097.019-.097.097l-.04.449.019.078c.47.117.843.175 1.04.253.196.039.235.136.254.253.019.117.138.974.138 3.566v3.37c0 1.988-.099 3.235-.138 3.527-.019.292-.097.428-1 .584l-.078.078c-.019.155 0 .564.039.584 1.568-.059 3.119-.137 4.687-.137 1.628 0 3.001.019 3.589.039.647.02.784.02.922.02.097 0 .157-.039.254-.156.255-.565.57-1.812.608-2.709 0-.097 0-.117-.058-.156" sketch:type="MSShapeGroup"/></g></svg>