<svg xmlns="http://www.w3.org/2000/svg" xmlns:xlink="http://www.w3.org/1999/xlink" x="0px" y="0px" width="260px" height="33px" viewBox="0 0 260 33">


<!-- 
The Promise of Education- Mortarboard Icon
-->
<g  transform="translate(0, 0)">
        <g id="Main" stroke="none" stroke-width="1" fill="none" fill-rule="evenodd">
        <g id="Home" transform="translate(-1349.000000, -961.000000)" fill="#FFFFFF">
            <g id="Additional-Navigation" transform="translate(1331.000000, 940.000000)">
                <g id="Menu">
                    <g id="Icons" transform="translate(18.461714, 21.192338)">
                        <path d="M35.1082011,6.1706928 L17.8725143,0.0234193883 C17.8320027,0.00898260984 17.789515,0.00199707188 17.7470273,0.00199707188 C17.7050336,0.00199707188 17.6605697,0.00898260984 17.6200582,0.0234193883 L10.9677658,2.42132172 L18.6812631,5.59042744 C18.6812631,5.59042744 16.4096522,6.55070606 16.3444385,6.48876762 L8.34884255,3.36343794 L0.569637539,6.16882999 C0.432787558,6.21772875 0.3418836,6.34346843 0.3418836,6.48178209 L0.3418836,6.97076974 C0.3418836,7.10722059 0.430811385,7.23109746 0.565685193,7.28185903 L2.98797925,8.19323889 L2.98797925,20.902261 L5.83021006,19.6760662 L5.83021006,9.26482041 L9.20205525,10.5347912 C9.12449045,10.661928 9.05137205,10.7876677 8.98368813,10.9129417 C7.63297388,13.379768 7.52873076,15.8102695 7.52675458,15.9122583 C7.52280224,16.0012075 7.55936144,16.0901567 7.62506919,16.1539579 C7.69077694,16.219622 7.7816809,16.2559468 7.87801934,16.2578096 C7.92989388,16.2578096 13.1464966,16.3560728 17.9327876,20.3615803 C17.9999774,20.4179303 18.0849529,20.4454068 18.1679521,20.4454068 C18.2489752,20.4454068 18.3299983,20.4179303 18.3976823,20.3653059 C23.4285247,16.3430332 27.761284,16.2559468 27.8057479,16.2559468 C27.9020863,16.254084 27.9929903,16.2177592 28.058698,16.1520951 C28.1239117,16.0868968 28.160965,15.9993447 28.1570126,15.9103955 C28.1530603,15.8084067 28.0507933,13.3816308 26.7845605,10.9185301 C26.7193468,10.7895305 26.6477105,10.6582024 26.5726159,10.52734 L35.118082,7.28185903 C35.2529558,7.23109746 35.3418836,7.10722059 35.3418836,6.97076974 L35.3418836,6.48178209 C35.3379313,6.34346843 35.2470273,6.21959156 35.1082011,6.1706928 L35.1082011,6.1706928 Z" id="Mortarboard"></path>
                    </g>
                </g>
            </g>
        </g>
    </g>
</g>

<!-- 
The Liberal Arts - University Icon
-->

<!--
<g  transform="translate(30, 0)">
<g id="Main" stroke="none" stroke-width="1" fill="none" fill-rule="evenodd">
        <g id="Home" transform="translate(-1363.000000, -1036.000000)" fill="#FFFFFF">
            <g id="Additional-Navigation" transform="translate(1331.000000, 940.000000)">
                <g id="Menu">
                    <g id="Icons" transform="translate(25.153846, 28.874286)">
                        <g id="University" transform="translate(7.452991, 67.183603)">
                            <path d="M13.9393355,8.29233641 L1.96131354,8.29233641 C1.54103207,8.29233641 1.19079751,8.62139738 1.19079751,9.01627054 L1.19079751,14.7419314 L0,14.7419314 L0,15.9923631 L15.8306021,15.9923631 L15.8306021,14.7419314 L14.6398046,14.7419314 L14.6398046,9.01627054 C14.7098516,8.62139738 14.4296639,8.29233641 13.9393355,8.29233641 L13.9393355,8.29233641 Z M4.76319003,14.7419314 L2.80187649,14.7419314 L2.80187649,10.6615754 C2.80187649,10.1350778 3.29220487,9.74020468 3.78253326,9.74020468 C4.34290855,9.74020468 4.76319003,10.1350778 4.76319003,10.6615754 L4.76319003,14.7419314 Z M8.96600476,14.7419314 L7.00469122,14.7419314 L7.00469122,10.6615754 C7.00469122,10.1350778 7.4950196,9.74020468 7.98534799,9.74020468 C8.54572328,9.74020468 8.96600476,10.1350778 8.96600476,10.6615754 L8.96600476,14.7419314 Z M13.1688195,14.7419314 L11.2075059,14.7419314 L11.2075059,10.6615754 C11.2075059,10.1350778 11.6978343,9.74020468 12.1881627,9.74020468 C12.748538,9.74020468 13.1688195,10.1350778 13.1688195,10.6615754 L13.1688195,14.7419314 Z" id="Fill-1"></path>
                            <path d="M15.6905083,6.05472183 L8.33558255,0.197436581 C8.12544181,3.40907857e-14 7.77520725,-0.0658121938 7.56506651,0.131624388 L0.210140736,6.05472183 C-0.140093824,6.3179706 1.13494283e-13,7.23934131 0.420281473,7.23934131 L15.4103207,7.23934131 C15.9006491,7.23934131 16.1107898,6.38378279 15.6905083,6.05472183 L15.6905083,6.05472183 Z M7.98534799,5.59403647 C7.21483195,5.59403647 6.58440974,5.00172673 6.58440974,4.27779259 C6.58440974,3.55385846 7.21483195,2.96154872 7.98534799,2.96154872 C8.75586402,2.96154872 9.38628623,3.55385846 9.38628623,4.27779259 C9.38628623,5.00172673 8.75586402,5.59403647 7.98534799,5.59403647 L7.98534799,5.59403647 Z" id="Fill-2"></path>
                        </g>
                    </g>
                </g>
            </g>
        </g>
    </g>
</g>

-->

<g  transform="translate(34, 0)">
    <g id="Main" stroke="none" stroke-width="1" fill="none" fill-rule="evenodd">
        <g id="Home" transform="translate(-1354.000000, -1010.000000)" fill="#FFFFFF">
            <g id="Additional-Navigation" transform="translate(1331.000000, 940.000000)">
                <g id="Menu">
                    <g id="Icons" transform="translate(18.461714, 21.192338)">
                        <g id="University" transform="translate(5.470138, 49.309536)">
                            <path d="M21.7802117,12.9567756 L3.06455241,12.9567756 C2.40786261,12.9567756 1.8606211,13.4709334 1.8606211,14.0879227 L1.8606211,23.0342678 L0,23.0342678 L0,24.9880673 L24.7353159,24.9880673 L24.7353159,23.0342678 L22.8746947,23.0342678 L22.8746947,14.0879227 C22.984143,13.4709334 22.5463498,12.9567756 21.7802117,12.9567756 L21.7802117,12.9567756 Z M7.44248442,23.0342678 L4.37793201,23.0342678 L4.37793201,16.6587115 C4.37793201,15.8360591 5.14407011,15.2190698 5.91020821,15.2190698 C6.78579461,15.2190698 7.44248442,15.8360591 7.44248442,16.6587115 L7.44248442,23.0342678 Z M14.0093824,23.0342678 L10.94483,23.0342678 L10.94483,16.6587115 C10.94483,15.8360591 11.7109681,15.2190698 12.4771062,15.2190698 C13.3526926,15.2190698 14.0093824,15.8360591 14.0093824,16.6587115 L14.0093824,23.0342678 Z M20.5762804,23.0342678 L17.511728,23.0342678 L17.511728,16.6587115 C17.511728,15.8360591 18.2778661,15.2190698 19.0440042,15.2190698 C19.9195906,15.2190698 20.5762804,15.8360591 20.5762804,16.6587115 L20.5762804,23.0342678 Z" id="Fill-1"></path>
                            <path d="M24.5164193,9.46050285 L13.0243477,0.308494658 C12.6960028,5.29611077e-14 12.1487613,-0.102831553 11.8204164,0.205663105 L0.328344901,9.46050285 C-0.2188966,9.87182906 1.77330373e-13,11.3114708 0.656689801,11.3114708 L24.0786261,11.3114708 C24.8447642,11.3114708 25.1731091,9.97466062 24.5164193,9.46050285 L24.5164193,9.46050285 Z M12.4771062,8.74068198 C11.2731749,8.74068198 10.2881402,7.81519801 10.2881402,6.68405093 C10.2881402,5.55290385 11.2731749,4.62741987 12.4771062,4.62741987 C13.6810375,4.62741987 14.6660722,5.55290385 14.6660722,6.68405093 C14.6660722,7.81519801 13.6810375,8.74068198 12.4771062,8.74068198 L12.4771062,8.74068198 Z" id="Fill-2"></path>
                        </g>
                    </g>
                </g>
            </g>
        </g>
    </g>
</g>

<!-- 
The Cause of Christ - Cross Icon
-->
<g  transform="translate(60, 0)">
        <g id="Main" stroke="none" stroke-width="1" fill="none" fill-rule="evenodd">
        <g id="Home" transform="translate(-1355.000000, -1067.000000)" fill="#FFFFFF">
            <g id="Additional-Navigation" transform="translate(1331.000000, 940.000000)">
                <g id="Menu">
                    <g id="Icons" transform="translate(18.461714, 21.192338)">
                        <polygon id="Cross" points="18.671526 138.063652 15.0647112 134.696962 16.125006 120.229783 9.76071969 121.197457 6.15390481 117.828869 9.79596216 114.395738 16.0540176 115.363412 15.0294687 109.462451 18.671526 106.02932 22.2783409 109.462451 21.253792 115.363412 27.5470899 114.395738 31.1539048 117.828869 27.5823324 121.197457 21.2185496 120.229783 22.2430985 134.696962"></polygon>
                    </g>
                </g>
            </g>
        </g>
    </g>
</g>

<!-- 
The Dignity of Labor - Gear Icon
-->
<g  transform="translate(90, 0)">
<g id="Main" stroke="none" stroke-width="1" fill="none" fill-rule="evenodd">
        <g id="Home" transform="translate(-1354.000000, -1133.000000)" fill="#FFFFFF">
            <g id="Additional-Navigation" transform="translate(1331.000000, 940.000000)">
                <g id="Menu">
                    <g id="Icons" transform="translate(18.461714, 21.192338)">
                        <path d="M8.41030529,185.992803 C8.66543349,186.971693 9.08979247,187.884115 9.64705742,188.705497 L8.08979247,190.180278 C7.39021982,190.839317 7.39705742,191.231276 8.01286939,191.811762 L9.53210016,193.243842 C10.1530403,193.830774 10.576972,193.818286 11.2628694,193.171332 L12.8974848,191.624443 C13.6667155,192.041781 14.5000489,192.361229 15.3846643,192.567078 L15.3846643,194.452349 C15.3846643,195.388539 15.6850916,195.660855 16.5513309,195.660855 L18.7051771,195.660855 C19.5829549,195.660855 19.8718437,195.369605 19.8718437,194.452349 L19.8718437,192.567078 C20.7564591,192.361229 21.5897925,192.041781 22.3590232,191.624443 L24.0316728,193.207587 C24.7244079,193.854541 25.1402198,193.867029 25.76116,193.28614 L27.2872284,191.848017 C27.8944933,191.275185 27.9081685,190.882017 27.2034677,190.217742 L25.6009036,188.707108 C26.1654335,187.885727 26.5893651,186.973304 26.8444933,185.994414 L28.9598779,185.994414 C29.8393651,185.992803 30.128254,185.701552 30.128254,184.784296 L30.128254,182.971536 C30.128254,182.076033 29.8778267,181.763029 28.9615873,181.763029 L26.8462027,181.763029 C26.6278267,180.92916 26.2889378,180.143631 25.8462027,179.418527 L27.3722711,177.986446 C28.0449207,177.352383 28.1034677,176.958813 27.4556044,176.35456 L25.9299634,174.916437 C25.3205617,174.341993 24.8846643,174.348439 24.1987668,174.99499 L22.7496215,176.35456 C21.878254,175.829262 20.9103053,175.429246 19.8718437,175.188754 L19.8718437,173.303483 C19.8718437,172.40798 19.6214164,172.094977 18.7051771,172.094977 L16.5513309,172.094977 C15.6850916,172.094977 15.3846643,172.390658 15.3846643,173.303483 L15.3846643,175.188754 C14.3462027,175.429246 13.378254,175.829262 12.5068865,176.35456 L11.0577412,174.99499 C10.3718437,174.348439 9.93594631,174.341993 9.3265446,174.916437 L7.80090358,176.35456 C7.15304033,176.958813 7.21158734,177.352383 7.88423691,177.986446 L9.40346768,179.418527 C8.96757024,180.143631 8.6273993,180.92916 8.41030529,181.763029 L6.29492067,181.763029 C5.42868136,181.763029 5.12825401,182.058711 5.12825401,182.971536 L5.12825401,184.784296 C5.12825401,185.720486 5.42868136,185.992803 6.29492067,185.992803 L8.41030529,185.992803 Z M13.9607326,183.877916 C13.9607326,181.969281 15.6017583,180.422393 17.628254,180.422393 C19.6530403,180.422393 21.294066,181.969281 21.294066,183.877916 C21.294066,185.786551 19.6530403,187.335051 17.628254,187.335051 C15.6034677,187.335051 13.9607326,185.786551 13.9607326,183.877916 L13.9607326,183.877916 Z" id="Gear"></path>
                    </g>
                </g>
            </g>
        </g>
    </g>
</g>


<!-- 
The Kinship of all People - Portrait Icon
-->
    <g  transform="translate(120, 0)">
        
     <g id="Main" stroke="none" stroke-width="1" fill="none" fill-rule="evenodd">
        <g id="Home" transform="translate(-1356.000000, -1189.000000)" fill="#FFFFFF">
            <g id="Additional-Navigation" transform="translate(1331.000000, 940.000000)">
                <g id="Menu">
                    <g id="Icons" transform="translate(18.461714, 21.192338)">
                        <g id="Portrait" transform="translate(6.837672, 228.492489)">
                            <path d="M18.9911538,6.10250019 C18.9911538,9.4723063 16.0984615,12.2050004 12.5313545,12.2050004 C8.96424749,12.2050004 6.07155518,9.4723063 6.07155518,6.10250019 C6.07155518,2.73269407 8.96424749,0 12.5313545,0 C16.0984615,0 18.9911538,2.73269407 18.9911538,6.10250019" id="Fill-1"></path>
                            <path d="M12.5313545,13.1735829 C5.6623495,13.1735829 0.0569607023,15.369467 0.0569607023,21.8908253 L0.0569607023,21.9545365 L24.9720276,21.9545365 L24.9720276,21.8908253 C25.0057483,15.3677451 19.4003595,13.1735829 12.5313545,13.1735829 L12.5313545,13.1735829 Z" id="Fill-2"></path>
                        </g>
                    </g>
                </g>
            </g>
        </g>
    </g>

    </g>

<!-- 
Democratic Community - Chat Bubbles Icon
-->

    <g  transform="translate(150, 0)">

    <g id="Main" stroke="none" stroke-width="1" fill="none" fill-rule="evenodd">
        <g id="Home" transform="translate(-1354.000000, -1245.000000)" fill="#FFFFFF">
            <g id="Additional-Navigation" transform="translate(1331.000000, 940.000000)">
                <g id="Menu">
                    <g id="Icons" transform="translate(18.461714, 21.192338)">
                        <g id="Chat-Bubbles" transform="translate(4.786370, 284.567729)">
                            <path d="M24.2955297,3.8620063 L18.8004864,3.8620063 C18.3371979,3.8620063 17.8734681,3.92397782 17.4441541,4.01797489 C17.5443127,4.42432506 17.5769635,4.85978937 17.5769635,5.29650143 C17.5769635,7.82319263 15.9550124,9.9755592 13.6712205,10.9113708 C14.4658706,12.8449654 16.4840438,14.2179049 18.8004864,14.2179049 L20.6536406,14.2179049 C20.7860088,14.9357764 22.9043404,17.1501144 22.9043404,17.1501144 C22.9043404,17.1501144 22.4737027,14.9049985 22.6391629,14.2179049 L24.3264156,14.2179049 C27.3700007,14.2179049 29.8519036,11.878376 29.8519036,9.00896984 C29.8210177,6.20153518 27.3391148,3.8620063 24.2955297,3.8620063 L24.2955297,3.8620063 Z" id="Fill-1"></path>
                            <path d="M11.0587144,0.118760085 L5.56367108,0.118760085 C2.520086,0.118760085 0.0381831213,2.45828897 0.0381831213,5.32935882 C0.0381831213,8.19834908 2.520086,10.537878 5.56367108,10.537878 L7.25136504,10.537878 C7.41682523,11.2561653 6.98574628,13.4705034 6.98574628,13.4705034 C6.98574628,13.4705034 9.07142715,11.2249716 9.23688735,10.537878 L11.0896003,10.537878 C14.1331854,10.537878 16.6150882,8.19834908 16.6150882,5.32935882 C16.5842023,2.45828897 14.1022994,0.118760085 11.0587144,0.118760085 L11.0587144,0.118760085 Z" id="Fill-2"></path>
                        </g>
                    </g>
                </g>
            </g>
        </g>
    </g>

    </g>

<!-- 
Supportive & Sustainable Living - Leaves Icon
-->

    <g  transform="translate(180, 0)">

    <g id="Main" stroke="none" stroke-width="1" fill="none" fill-rule="evenodd">
        <g id="Home" transform="translate(-1355.000000, -1294.000000)" fill="#FFFFFF">
            <g id="Additional-Navigation" transform="translate(1331.000000, 940.000000)">
                <g id="Menu">
                    <g id="Icons" transform="translate(18.461714, 21.192338)">
                        <path d="M26.3779789,339.53873 C23.5946455,339.53873 21.116127,340.791737 19.5409418,342.729725 L19.5409418,341.629285 C19.516127,337.172367 15.6635344,333.552997 10.9298307,333.552997 L6.15390481,333.552997 L6.15390481,334.389149 C6.15390481,339.535937 10.5953863,343.72403 16.0568678,343.72403 L17.7668678,343.72403 L17.7668678,355.873899 L19.5409418,355.873899 L19.5409418,349.709414 L21.2509418,349.709414 C26.7124233,349.709414 31.1539048,345.521321 31.1539048,340.374533 L31.1539048,339.53873 L26.3779789,339.53873 Z" id="Leaves"></path>
                    </g>
                </g>
            </g>
        </g>
    </g>

    </g>

<!-- 
Serving Appalachia - Quilt Icon
-->

    <g  transform="translate(210, 0)">

<g id="Main" stroke="none" stroke-width="1" fill="none" fill-rule="evenodd">
        <g id="Home" transform="translate(-1352.000000, -1348.000000)" fill="#FFFFFF">
            <g id="Additional-Navigation" transform="translate(1331.000000, 940.000000)">
                <g id="Menu">
                    <g id="Icons" transform="translate(18.461714, 21.192338)">
                        <path d="M12.2581426,396.22068 L7.83969217,400.387481 L3.418836,396.22068 L12.2581426,396.22068 Z M7.83969217,401.348108 L3.418836,405.514909 L12.2562179,405.514909 L7.83969217,401.348108 Z M28.9989837,401.348108 L24.5805333,405.514909 L33.4179153,405.514909 L28.9989837,401.348108 Z M24.5805333,396.22068 L28.9989837,400.387481 L33.4198399,396.22068 L24.5805333,396.22068 Z M13.4894193,396.22068 L13.4894193,405.513095 L23.347332,405.513095 L23.347332,396.22068 L13.4894193,396.22068 Z M18.9288816,410.84054 L23.3492566,415.007795 L23.3492566,406.675554 L18.9288816,410.84054 Z M13.4894193,406.675554 L13.4894193,415.00598 L17.9097943,410.84054 L13.4894193,406.675554 Z M13.4894193,386.727794 L13.4894193,395.058221 L17.9097943,390.895048 L13.4894193,386.727794 Z M18.9288816,390.895048 L23.3492566,395.060035 L23.3492566,386.727794 L18.9288816,390.895048 Z" id="Quilt"></path>
                    </g>
                </g>
            </g>
        </g>
    </g>

    </g>

</svg>