<svg width="500" height="500" viewBox="0 0 500 500" xmlns="http://www.w3.org/2000/svg" xmlns:sketch="http://www.bohemiancoding.com/sketch/ns"><title>Artboard 1</title><desc>Created with Sketch.</desc><g sketch:type="MSArtboardGroup" fill="#fff"><g sketch:type="MSLayerGroup"><path d="M119.856 367.57l-7.851 6.198-6.513-8.237 7.855-6.187-1.946-2.476-17.232 13.603 1.951 2.456 7.2-5.686 6.505 8.237-7.206 5.697 1.946 2.461 17.233-13.586-1.942-2.48" id="H" sketch:type="MSShapeGroup"/><path d="M131.108 379.771l-2.205-2.249-13.666 13.471-4.788-4.868-1.972 1.955 11.784 11.949 1.971-1.943-4.789-4.855 13.665-13.46" id="T" sketch:type="MSShapeGroup"/><path d="M146.233 393.337l-6.246 7.484-1.447-1.214c-1.273-1.069-2.074-1.731-1.457-3.987l2.284-8.009-2.746-2.293-2.411 9.378c-.332 1.47-.273 2.132.231 3.051l-.041.049c-2.239-1.291-4.962-1.113-6.677.942-3.358 4.037-.593 7.245 2.737 10.019l4.14 3.452 14.05-16.861-2.417-2.011zm-12.285 14.729l-2.316-1.928c-2.225-1.865-2.573-3.791-1.309-5.317 1.351-1.615 3.553-1.504 5.842.411l2.054 1.711-4.271 5.123z" sketch:type="MSShapeGroup"/><path d="M166.642 407.615l-4.9 3.414-8.988-5.881 1.158-5.859-2.868-1.876-4.265 23.422 2.762 1.82 19.869-13.225-2.768-1.815zm-16.773 11.728l2.302-11.494 7.321 4.789-9.623 6.705z" id="A" sketch:type="MSShapeGroup"/><path d="M170.699 413.099l8.161 4.132-3.275 6.444-7.429-3.753-1.25 2.461 7.432 3.765-2.898 5.719-8.161-4.127-1.25 2.466 10.97 5.553 9.915-19.568-10.965-5.581-1.25 2.489" id="E" sketch:type="MSShapeGroup"/></g><g sketch:type="MSLayerGroup"><path d="M195.232 424.376l8.67 2.901-2.294 6.861-7.902-2.633-.88 2.616 7.902 2.647-2.027 6.091-8.682-2.913-.874 2.618 11.655 3.91 6.956-20.833-11.655-3.881-.869 2.616" id="E" sketch:type="MSShapeGroup"/><path d="M224.83 440.036l-10.272-2.2 2.105-9.778-3.076-.652-4.611 21.438 3.07.675 1.933-8.982 10.266 2.205-1.935 8.977 3.082.662 4.608-21.461-3.069-.652-2.101 9.768" id="H" sketch:type="MSShapeGroup"/><path d="M243.43 432.473l-3.124-.301-1.932 19.089-6.793-.696-.278 2.74 16.71 1.705.273-2.75-6.782-.691 1.926-19.096" sketch:type="MSShapeGroup"/></g><g sketch:type="MSLayerGroup"><path d="M269.603 433.057l.378 9.991-8.141.313.106 2.761 8.13-.3.246 6.399-8.514.316.11 2.773 11.649-.434-.823-21.93-3.141.111" id="F" sketch:type="MSShapeGroup"/><path d="M287.647 430.902c-6.624.97-9.769 6.187-8.776 12.77.959 6.443 5.526 10.658 12.112 9.678 6.6-.997 9.745-6.343 8.777-12.791-.975-6.576-5.491-10.648-12.113-9.657zm2.93 19.709c-4.788.746-7.763-3.007-8.42-7.418-.629-4.327.897-8.821 5.893-9.577 4.995-.725 7.774 3.123 8.424 7.439.664 4.421-1.095 8.881-5.897 9.556z" id="O" sketch:type="MSShapeGroup"/></g><g sketch:type="MSLayerGroup"><path d="M315.042 431.277c-.774-2.451 1.302-4.166 3.017-4.712 1.527-.484 3.514-.463 4.668-.362l-.592-2.885c-1.514-.016-3.09.023-4.56.501-4.187 1.325-7.074 4.2-5.653 8.654 2.194 6.9 10.893 3.091 12.169 7.105.696 2.195-1.099 3.42-2.781 3.959-1.548.507-2.459.507-4.187.38l.452 2.901c1.604.05 3.335-.238 4.71-.673 3.77-1.203 6.076-4.127 4.883-7.835-2.06-6.505-10.64-2.345-12.126-7.033" id="S" sketch:type="MSShapeGroup"/><path d="M325.85 421.397l1.074 2.551 8.421-3.581 2.84 6.661-7.674 3.263 1.074 2.533 7.657-3.247 2.507 5.92-8.426 3.553 1.085 2.551 11.321-4.784-8.565-20.22-11.314 4.8" id="E-(2)" sketch:type="MSShapeGroup"/><path d="M340.595 415.037l1.309 2.44 8.092-4.339 9.064 16.897 2.774-1.493-10.374-19.346-10.865 5.841" id="L" sketch:type="MSShapeGroup"/><path d="M363.906 401.338l4.839 7.318-2.572 1.698c-3.297 2.199-5.524 5.742-2.841 9.801 2.756 4.166 6.756 3.413 10.498.942l4.805-3.175-12.105-18.31-2.624 1.726zm10.584 16.01l-2.231 1.465c-1.63 1.081-4.598 1.832-6.12-.474-1.609-2.399-.093-4.577 1.537-5.657l2.589-1.705 4.225 6.371z" sketch:type="MSShapeGroup"/><path d="M378.13 390.028c-5.123 4.311-5.074 10.392-.77 15.492 4.183 4.973 10.278 6.177 15.387 1.883 5.106-4.282 4.961-10.508.778-15.492-4.286-5.102-10.268-6.192-15.395-1.883zm12.83 15.264c-3.689 3.124-8.187 1.499-11.06-1.915-2.809-3.348-3.865-7.975.018-11.232 3.879-3.253 8.247-1.426 11.059 1.909 2.866 3.426 3.707 8.143-.017 11.238z" id="O" sketch:type="MSShapeGroup"/><path d="M389.281 380.534l2.018 1.894 6.286-6.641 5.239 4.959-5.706 6.053 2.011 1.915 5.724-6.058 4.657 4.399-6.279 6.65 2.01 1.909 8.431-8.943-15.953-15.069-8.438 8.932" id="E" sketch:type="MSShapeGroup"/><path d="M413.969 365.466l-1.894 2.436c-2.435 3.132-3.403 7.189.452 10.187 3.943 3.074 7.477 1.086 10.24-2.472l3.53-4.523-17.317-13.491-1.926 2.485 6.915 5.378zm2.183 1.698l6.043 4.705-1.654 2.1c-1.187 1.542-3.77 3.212-5.943 1.509-2.29-1.778-1.555-4.308-.35-5.843l1.904-2.471z" sketch:type="MSShapeGroup"/></g><g sketch:type="MSLayerGroup"><path d="M415.951 347.34l2.399 1.392 4.572-7.978 16.628 9.55 1.576-2.736-19.034-10.909-6.141 10.681" sketch:type="MSShapeGroup"/><path d="M423.82 333.498l2.515 1.164 3.855-8.331 17.409 8.055 1.318-2.856-19.917-9.222-5.18 11.19" id="L" sketch:type="MSShapeGroup"/><path d="M436.505 301.721l4.529 3.892-3.459 10.183-5.964.342-1.092 3.235 23.744-1.726 1.071-3.125-17.776-15.932-1.053 3.131zm15.543 13.303l-11.717.646 2.813-8.275 8.904 7.629z" id="A" sketch:type="MSShapeGroup"/></g><g sketch:type="MSLayerGroup"><path d="M441.925 275.867c-1.099 7.159 1.986 12.151 9.254 13.266 6.681 1.032 11.444-3.489 12.444-9.918l.982-6.408-21.691-3.33-.989 6.39zm2.749.399l.494-3.263 16.222 2.495-.555 3.636c-.692 4.48-4.205 7.462-9.268 6.685-5.6-.862-7.727-4.216-6.893-9.553z" id="D" sketch:type="MSShapeGroup"/><path d="M454.853 244.06c-6.674-.117-11.42 3.646-11.547 10.349-.134 6.687 4.481 10.641 11.137 10.775 6.502.129 11.413-3.669 11.555-10.34.127-6.659-4.64-10.657-11.145-10.784zm-.342 17.797c-4.375-.1-8.551-2.337-8.445-7.399.102-5.057 4.346-7.146 8.72-7.068 4.466.097 8.572 2.561 8.445 7.397-.057 4.843-4.258 7.157-8.72 7.07z" sketch:type="MSShapeGroup"/><path d="M452.376 218.04c-6.621.726-10.858 5.086-10.123 11.741.728 6.661 5.813 9.991 12.434 9.249 6.47-.707 10.855-5.111 10.123-11.729-.717-6.625-5.957-9.976-12.434-9.261zm9.685 9.558c.555 4.817-3.303 7.635-7.738 8.125-4.335.479-8.763-1.209-9.324-6.251-.551-5.031 3.395-7.646 7.738-8.121 4.445-.486 8.822 1.436 9.324 6.247z" id="O" sketch:type="MSShapeGroup"/><path d="M440.882 216.812l2.696-.602-2.01-8.954 18.705-4.202-.685-3.076-21.405 4.816 2.699 12.018" id="L" sketch:type="MSShapeGroup"/><path d="M434.254 191.714c1.399 4.243 3.699 7.592 8.173 6.114 2.929-.958 4.119-3.569 3.427-6.488l.063-.01c1.513 2.405 3.502 3.602 6.364 2.659 3.855-1.267 4.272-4.711 2.851-9.042l-1.858-5.646-20.843 6.86 1.823 5.553zm17.554-8.626l1.031 3.146c.58 1.732.647 4.054-1.844 4.867-3.064 1.019-4.131-1.347-5.095-4.249l-.544-1.634 6.452-2.13zm-8.894 2.929l.636 1.943c.841 2.568 1.332 5.558-1.901 6.621-2.798.914-4.169-1.308-5.049-4.009l-.735-2.233 7.049-2.322z" sketch:type="MSShapeGroup"/></g><g sketch:type="MSLayerGroup"><path d="M427.032 173.242l2.473-1.253-4.138-8.16 6.449-3.267 3.77 7.434 2.473-1.247-3.759-7.432 5.72-2.898 4.127 8.161 2.466-1.247-5.558-10.971-19.567 9.908 5.544 10.972" id="E" sketch:type="MSShapeGroup"/><path d="M411.008 145.376l15.105-9.872.035.058-9.674 18.184 2.201 3.369 18.363-12.009-1.707-2.63-14.801 9.667-.024-.05 9.494-17.776-2.343-3.581-18.366 12.009 1.717 2.631" sketch:type="MSShapeGroup"/><path d="M399.429 132.154c4.36 5.087 10.434 4.978 15.49.638 4.947-4.23 6.088-10.339 1.756-15.406-4.332-5.068-10.547-4.879-15.494-.64-5.066 4.334-6.109 10.318-1.752 15.408zm3.918-12.88c3.389-2.896 8.099-3.787 11.222-.087 3.18 3.656 1.576 8.172-1.819 11.074-3.308 2.84-7.929 3.934-11.212.092-3.3-3.845-1.491-8.239 1.809-11.079z" id="O" sketch:type="MSShapeGroup"/></g><g sketch:type="MSLayerGroup"><path d="M377.399 108.912l6.466-7.618 6.204 5.258 1.792-2.103-6.208-5.27 4.155-4.892 6.49 5.523 1.795-2.118-8.893-7.545-14.201 16.722 2.4 2.043" sketch:type="MSShapeGroup"/><path d="M362.659 98.352c5.553 3.747 11.376 2.026 15.107-3.506 3.646-5.385 3.113-11.577-2.41-15.314-5.519-3.726-11.465-1.896-15.098 3.498-3.735 5.527-3.141 11.583 2.401 15.322zm.355-13.451c2.507-3.704 6.805-5.803 10.798-3.068 4.032 2.678 3.682 7.456 1.187 11.154-2.434 3.625-6.604 5.907-10.787 3.076-4.205-2.837-3.646-7.537-1.198-11.162z" id="O" sketch:type="MSShapeGroup"/></g><g sketch:type="MSLayerGroup"><path d="M343.719 83.514l-8.318-3.803 3-6.578 7.579 3.465 1.154-2.515-7.574-3.461 2.673-5.833 8.319 3.795 1.131-2.506-11.166-5.112-9.126 19.958 11.176 5.11 1.152-2.52" id="E" sketch:type="MSShapeGroup"/><path d="M330.293 68.297c2.117-6.412-1.56-11.858-7.739-13.897l-6.143-2.015-6.867 20.847 6.158 2.018c6.862 2.261 12.291.044 14.591-6.953zm-11.767-12.304l3.492 1.148c4.306 1.414 6.666 5.368 5.073 10.235-1.776 5.379-5.428 6.933-10.563 5.234l-3.136-1.024 5.134-15.593z" id="D" sketch:type="MSShapeGroup"/><path d="M291.407 63.72l10.542 2.046 1.141 5.859 3.359.657-4.912-23.313-3.236-.633-13.386 19.753 3.245.635 3.247-5.004zm7.835-12.19l2.218 11.513-8.583-1.665 6.365-9.848z" id="A" sketch:type="MSShapeGroup"/><path d="M261.667 47.607h.062l6.27 19.343 3.081.153 8.224-18.583h.072l-.986 18.97 3.145.161 1.134-21.921-5.187-.265-7.685 17.865-5.936-18.568-5.183-.273-1.143 21.923 3.147.157.985-18.962" sketch:type="MSShapeGroup"/></g><g sketch:type="MSLayerGroup"><path d="M240.056 61.899c.322 2.548-2.049 3.862-3.825 4.073-1.606.201-3.547-.189-4.66-.495l.038 2.946c1.499.278 3.046.538 4.583.345 4.365-.541 7.728-2.823 7.149-7.478-.885-7.171-10.127-5.049-10.651-9.228-.279-2.278 1.698-3.16 3.452-3.372 1.621-.203 2.527-.025 4.192.398l.089-2.923c-1.565-.348-3.306-.382-4.749-.207-3.937.491-6.732 2.93-6.253 6.797.838 6.769 10.039 4.266 10.635 9.144" sketch:type="MSShapeGroup"/><path d="M212.072 67.459l10.474-2.456 3.433 4.884 3.336-.78-14.031-19.256-3.212.757-4.121 23.497 3.205-.748.916-5.898zm2.171-14.328l6.738 9.595-8.52 1.996 1.782-11.591z" id="A" sketch:type="MSShapeGroup"/><path d="M191.802 80.039l-3.481-9.367 9.845-3.656 3.481 9.37 2.946-1.1-7.651-20.568-2.941 1.097 3.202 8.609-9.845 3.648-3.205-8.599-2.946 1.092 7.649 20.572 2.946-1.098" sketch:type="MSShapeGroup"/></g><g sketch:type="MSLayerGroup"><path d="M166.119 92.944c6.239-3.65 8.175-9.196 4.454-15.542-3.418-5.836-9.923-6.691-15.536-3.405l-5.597 3.271 11.085 18.948 5.594-3.272zm-9.39-16.728c3.908-2.286 8.443-1.445 11.033 2.976 2.862 4.89 1.598 8.645-3.066 11.383l-2.854 1.662-8.286-14.159 3.173-1.862z" sketch:type="MSShapeGroup"/><path d="M148.616 105.41c5.293-4.099 5.486-10.168 1.401-15.451-3.979-5.139-10.032-6.579-15.306-2.497-5.263 4.077-5.384 10.294-1.398 15.448 4.082 5.265 10.007 6.598 15.303 2.5zm-12.206-15.765c3.806-2.99 8.236-1.17 10.97 2.361 2.679 3.456 3.547 8.12-.456 11.216-4.005 3.096-8.298 1.097-10.979-2.359-2.732-3.533-3.389-8.278.465-11.218z" id="O" sketch:type="MSShapeGroup"/><path d="M132.144 118.797c2.417-2.431 3.478-3.297 4.026-4.438l-8.085-8.047-5.48 5.502 1.832 1.821 3.258-3.274 4.725 4.705c-.443.666-.691 1.219-2.214 2.756-3.216 3.231-8.264 3.447-11.917-.189-3.48-3.455-3.717-8.439-.15-12.028 2.004-2.01 3.53-2.835 5.332-3.222l-2.074-2.408c-1.738.847-3.069 1.52-5.329 3.793-4.717 4.744-4.99 11.398-.198 16.162 4.942 4.92 11.374 4.795 16.274-.133" id="G" sketch:type="MSShapeGroup"/></g><g sketch:type="MSLayerGroup"><path d="M376.225 312.845c-.084 1.262-.42 1.852-4.294 2.527-.083 0-.334.166-.334.335-.085.672 0 2.44.166 2.527 6.734-.255 13.388-.59 20.119-.59 6.989 0 12.882.083 15.405.166 2.777.086 3.368.086 3.957.086.421 0 .675-.169 1.092-.673 1.099-2.441 2.445-7.83 2.611-11.702 0-.421 0-.506-.251-.675-.84-.083-1.685-.166-2.02-.083-2.612 8.923-7.322 9.851-17.172 9.851-6.905 0-9.851-.424-11.028-2.021-.845-1.348-.845-3.62-.845-9.765 0-6.902.506-9.851.763-10.356.251-.336.502-.421.841-.504.499-.086 1.347-.169 5.551-.169 4.293 0 7.074 0 8.925.169 3.371.251 4.378 1.009 4.887 3.283.248 1.009.672 2.357 1.007 3.282.166.338.34.589.756.506.59 0 1.265-.085 1.94-.251-.258-2.442-.509-4.8-.59-7.662 0-2.61.505-6.482.671-8.926-.424-.083-2.353.087-2.695.338-1.089 4.968-1.513 5.304-6.565 5.641-2.103.168-4.968.254-8.753.254h-5.392c-.583 0-1.091-.591-1.091-1.348-.081-5.892-.166-11.787-.166-17.677 0-1.938.166-2.779 1.257-3.117.93-.252 3.703-.42 8.671-.42h5.809c6.572 0 7.155 3.03 8.335 9.091.085.507.424.756 2.612.756 0-2.187.084-7.068.759-10.774.332-1.515.332-1.515-.424-2.018-.417-.254-.925-.424-2.021-.424-4.205.087-10.353.507-15.487.507h-8.169c-5.134-.083-8.331-.254-10.942-.254h-2.947c-.417 0-.417.084-.417.42l-.173 1.938c0 .251 0 .251.085.338 2.02.503 3.618.757 4.466 1.093.84.168 1.007.588 1.091 1.096.082.503.59 4.206.59 15.405v14.563c0 8.586-.424 13.974-.59 15.237" sketch:type="MSShapeGroup"/><path d="M319.485 310.151c5.892 5.556 13.888 8.42 24.919 8.42 3.371 0 5.975-.254 9.005-.507 3.369-.254 4.717-.254 6.655-.254.334 0 1.597-.083 2.357-.756.839-.758 1.263-1.347 1.263-2.947 0-14.226.417-20.204.584-20.877 1.347-.166 2.361-.338 3.287-.421.166-.507.339-3.114.166-3.282-1.348 0-4.21.337-8.671.337-3.618 0-7.406-.337-12.206-.337-.251 0-.419.251-.419.673.085.505.168 1.178.419 1.599.168.252.59.42.931.59.922.168 4.544.588 5.384.758 2.946.503 3.195 1.514 3.195 9.597 0 5.976-.756 9.849-2.272 10.942-1.258 1.011-4.544 1.937-7.07 1.937-4.378 0-13.551-1.009-20.031-7.324-5.643-5.471-7.157-12.373-7.157-17.931 0-10.523 4.878-17.091 8.671-20.54 4.712-4.127 9.678-5.305 14.395-5.305 9.429 0 14.895 4.968 17.174 11.029.251.587.585.674.841.674h1.175c.59 0 .763-.087.931-.253.081-.255.081-1.011-.085-1.934-.424-2.106-.929-6.399-1.18-11.871 0-.424-.251-.59-.424-.59l-1.682-.085c-.673 0-.756 0-.924.251l-.758 1.265c-.083.253-.422.166-.841 0-3.201-1.011-8.084-1.516-10.773-1.516-2.696 0-8.088.251-13.137 1.682-5.726 1.602-9.936 3.454-13.554 6.819-5.219 4.8-8.417 11.282-8.417 19.87v.083c0 8.841 3.364 15.657 8.249 20.204" sketch:type="MSShapeGroup"/><path d="M306.991 304.846c-.841-.083-1.68-.166-2.016-.083-2.611 8.923-7.328 9.851-17.174 9.851-6.906 0-9.851-.424-11.031-2.021-.841-1.348-.841-3.62-.841-9.765 0-6.902.507-9.851.758-10.356.253-.336.505-.421.843-.504.503-.086 1.344-.169 5.556-.169 4.293 0 7.07 0 8.922.169 3.367.251 4.381 1.009 4.883 3.283.254 1.009.671 2.357 1.012 3.282.168.338.334.589.758.506.59 0 1.263-.085 1.936-.251-.254-2.442-.505-4.8-.59-7.662 0-2.61.502-6.482.675-8.926-.424-.083-2.36.087-2.696.338-1.095 4.968-1.514 5.304-6.565 5.641-2.106.168-4.968.254-8.756.254h-5.388c-.59 0-1.095-.591-1.095-1.348-.083-5.892-.17-11.787-.17-17.677 0-1.938.17-2.779 1.265-3.117.924-.252 3.703-.42 8.671-.42h5.807c6.567 0 7.157 3.03 8.337 9.091.083.507.417.756 2.606.756 0-2.187.09-7.068.763-10.774.334-1.515.334-1.515-.424-2.018-.422-.254-.924-.424-2.021-.424-4.21.087-10.351.507-15.488.507h-8.168c-5.134-.083-8.333-.254-10.943-.254h-2.945c-.424 0-.424.084-.424.42l-.166 1.938c0 .251 0 .251.083.338 2.022.503 3.62.757 4.461 1.093.845.168 1.014.588 1.096 1.096.084.503.591 4.206.591 15.405v14.563c0 8.586-.422 13.974-.591 15.237-.082 1.262-.423 1.852-4.294 2.527-.083 0-.335.166-.335.335-.087.672 0 2.44.169 2.527 6.731-.255 13.381-.59 20.119-.59 6.986 0 12.881.083 15.404.166 2.779.086 3.369.086 3.959.086.417 0 .675-.169 1.092-.673 1.097-2.441 2.445-7.83 2.611-11.702 0-.421 0-.506-.256-.675" id="E" sketch:type="MSShapeGroup"/><path d="M257.341 304.259h-.086c-.254 0-.337.083-.421.421-.59 2.607-1.264 4.21-2.189 5.641-2.778 4.293-8.165 4.461-13.721 4.461-3.789 0-6.398-.168-7.829-.675-1.011-.253-1.517-.924-1.599-2.104-.086-1.516-.169-4.124-.254-17.425l-.084-10.272c-.085-6.819.169-12.373.42-14.815.423-3.452 2.443-3.873 7.492-4.461 0-.673-.251-2.275-.587-2.528-4.379.17-8.841.424-13.133.507-2.695.083-5.304 0-7.83 0-.168 0-.253 0-.336.42l-.674 1.515c-.168.507.084 1.01.337 1.01 5.977-.083 6.65.254 6.903 2.189.252 1.851.421 6.399.421 13.554v17.257c0 8.588-.252 11.704-.589 12.881-.673 2.526-2.778 3.282-6.904 3.788-.084.505.422 2.273.674 2.611.168 0 .674 0 1.6-.087 1.178-.083 5.303-.503 9.849-.503 14.228 0 18.352.252 21.802.252 3.536 0 4.463 0 5.307-.086.671-.083 1.261-.421 1.431-1.262.588-3.618 1.514-7.238 2.523-10.692.083-.335.083-.586-.251-.924-.423-.252-1.938-.673-2.272-.673M210.695 317.81c.672-.083 1.263-.421 1.431-1.262.589-3.618 1.514-7.238 2.525-10.692.084-.335.084-.586-.253-.924-.421-.252-1.937-.673-2.272-.673h-.085c-.252 0-.337.083-.421.421-.589 2.607-1.262 4.21-2.188 5.641-2.779 4.293-8.166 4.461-13.722 4.461-3.789 0-6.398-.168-7.828-.675-1.012-.253-1.517-.924-1.6-2.104-.085-1.516-.169-4.124-.254-17.425l-.084-10.272c-.085-6.819.169-12.373.421-14.815.422-3.452 2.442-3.873 7.493-4.461 0-.673-.253-2.275-.589-2.528-4.379.17-8.841.424-13.134.507-2.692.083-5.303 0-7.828 0-.169 0-.252 0-.337.42l-.674 1.515c-.168.507.086 1.01.337 1.01 5.977-.083 6.651.254 6.903 2.189.253 1.851.421 6.399.421 13.554v17.257c0 8.588-.252 11.704-.588 12.881-.674 2.526-2.779 3.282-6.904 3.788-.083.505.422 2.273.673 2.611.169 0 .675 0 1.6-.087 1.178-.083 5.303-.503 9.849-.503 14.228 0 18.352.252 21.803.252 3.537 0 4.463 0 5.305-.086" sketch:type="MSShapeGroup"/><path d="M141.814 261.493h-.084c-7.325 0-14.902 2.864-20.204 7.661-6.567 5.891-9.429 13.384-9.429 20.456 0 6.902 2.779 14.395 7.072 19.11 5.723 6.397 15.405 10.438 24.328 10.438 4.546 0 12.122-1.935 17.931-7.661 4.463-4.376 9.514-12.038 9.514-22.477 0-15.406-13.892-27.527-29.128-27.527zm2.862 54.382c-5.641 0-10.943-2.104-16.5-7.743-4.63-4.717-7.409-11.535-7.409-19.363 0-5.304 1.263-12.964 5.725-18.101 4.293-4.629 8.503-6.145 12.543-6.145h.085c6.987 0 12.29 3.117 15.658 6.736 5.808 6.311 7.828 13.805 7.828 21.381 0 15.743-9.259 23.235-17.93 23.235z" sketch:type="MSShapeGroup"/></g><g sketch:type="MSLayerGroup"><path d="M359.513 222.33c6.709-.34 16.37-.454 24.564-.454.908 0 1.593.911 1.932 1.708 1.481 3.638 5.116 12.849 5.685 15.124 1.364 4.435.569 5.232-5.229 6.823-.117.227.339 2.274.569 2.958.11.226.339.339.795.339 1.025.115 4.205-.339 7.848-.339 3.752 0 6.024 0 15.461.111.46-.339 1.138-3.41.916-3.41-6.484-1.25-8.074-3.296-10.466-8.642-1.481-3.526-10.692-25.022-14.328-35.142-3.982-10.689-6.371-16.375-9.784-27.406-.339-1.139-.569-1.707-1.364-1.707h-.109c-1.025 0-2.958.796-3.415 1.024-.451.226-.567.341-.68.911-.686 1.818-1.364 3.751-2.617 6.821-6.593 15.695-19.562 47.651-22.742 53.905-3.074 5.8-4.21 8.304-9.099 9.668-.229.339.11 2.499.567 3.183.112.228.228.341.797.341.456.115 2.272 0 4.208 0 2.386 0 8.866 0 14.441.115.456-.343 1.025-2.503.914-3.185-5.691-1.704-6.599-2.615-6.599-5.119 0-3.07 3.753-12.849 4.888-15.237.914-1.933 1.483-2.275 2.847-2.39zm.569-6.482c4.43-11.599 5.912-15.353 11.259-27.749.339-.682 1.136-.907 1.363-.453 3.525 9.098 5.797 15.807 10.235 27.862.222.569-.117 1.594-.912 1.594-3.07.111-6.254.224-11.6.224-5.118 0-7.506-.224-8.187-.224h-.116c-1.475 0-2.161-.797-2.042-1.254z" sketch:type="MSShapeGroup"/><path d="M220.568 173.772c-4.89.456-10.121.456-16.035.568-.341.227-.568.456-.454.795l.341 2.618c7.278 1.818 7.846 2.386 7.961 5.914.112 5.457.227 13.646.227 20.242v13.417c0 13.761-.227 22.974-1.479 24.792-.797 1.594-4.207 2.276-6.482 2.731 0 .682.114 2.73.682 3.297.114.23.341.23 1.82.23 1.138 0 3.298-.343 7.393-.343 4.662 0 13.986.113 15.238.113 1.138 0 1.479 0 1.593-.228.227-.454.795-2.387.795-2.957-2.615-.682-7.62-1.364-8.757-2.5-.568-.343-1.024-1.251-1.136-2.957-.342-6.595-.456-13.307-.456-21.95 0-.91.797-1.477 1.479-1.706.909-.225 2.161-.34 5.459-.34 7.05 0 8.301 1.022 10.917 6.254 3.868 7.392 7.393 13.761 12.167 18.423 5.814 5.406 14.504 9.606 22.044 9.081l-.007.085c9.099-.343 20.37-1.205 29.468-1.205 9.44 0 17.397.115 20.812.23 3.752.113 4.547.113 5.346.113.567 0 .906-.228 1.473-.91 1.482-3.3 3.297-10.577 3.526-15.81 0-.567 0-.682-.339-.908-1.137-.113-2.272-.228-2.729-.113-3.525 12.052-9.895 13.306-23.198 13.306-9.329 0-13.307-.572-14.901-2.731-1.137-1.819-1.137-4.89-1.137-13.19 0-9.328.685-13.307 1.024-13.988.339-.458.682-.569 1.134-.683.686-.114 1.824-.229 7.509-.229 5.802 0 9.554 0 12.056.229 4.549.34 5.914 1.364 6.593 4.435.346 1.366.913 3.184 1.364 4.433.23.457.456.796 1.024.685.797 0 1.71-.115 2.619-.343-.34-3.296-.686-6.482-.797-10.349 0-3.525.68-8.756.906-12.053-.567-.114-3.183.114-3.636.454-1.48 6.71-2.049 7.164-8.87 7.621-2.846.225-6.71.339-11.828.339h-7.279c-.795 0-1.477-.796-1.477-1.818-.115-7.961-.226-15.921-.226-23.881 0-2.618.226-3.753 1.703-4.21 1.255-.34 5.007-.568 11.713-.568h7.851c8.866 0 9.661 4.093 11.254 12.282.117.682.569 1.024 3.525 1.024 0-2.957.118-9.553 1.024-14.556.458-2.047.458-2.047-.567-2.729-.568-.343-1.254-.57-2.729-.57-5.685.114-13.989.682-20.926.682h-11.03c-6.936-.112-11.257-.34-14.785-.34h-3.982c-.567 0-.567.113-.567.567l-.225 2.618c0 .34 0 .34.113.454 2.728.682 4.89 1.022 6.028 1.478 1.136.228 1.364.796 1.477 1.478.113.683.795 5.686.795 20.811v19.675c0 11.6-.569 18.876-.795 20.583-.113 1.708-.569 2.502-5.802 3.412-7.448.029-16.359-8.643-21.591-16.717-4.89-7.505-7.279-14.214-7.847-16.603-.228-.797.115-1.366.797-1.707 4.321-2.501 12.053-7.847 12.053-16.832 0-5.457-2.729-11.029-8.074-14.782-5.914-4.207-12.965-5.118-19.787-5.118-3.072 0-6.141.114-11.373.455zm28.317 19.787v.115c0 4.775-1.933 9.211-4.664 12.51-3.636 4.321-8.982 5.572-17.853 5.572-1.705 0-3.07-.115-3.64-.343-.453-.339-.795-.682-.795-11.372-.114-10.349.227-16.149.795-19.674.229-.91.57-1.592 1.593-2.046 1.593-.796 3.753-1.25 7.62-1.25 10.237 0 16.944 7.732 16.944 16.488z" sketch:type="MSShapeGroup"/><path d="M192.833 248.489c.568 0 .909-.228 1.478-.91 1.478-3.3 3.299-10.577 3.526-15.81 0-.567 0-.682-.341-.908-1.138-.113-2.275-.228-2.731-.113-3.524 12.052-9.894 13.306-23.199 13.306-9.325 0-13.305-.572-14.898-2.731-1.137-1.819-1.137-4.89-1.137-13.19 0-9.328.683-13.307 1.024-13.988.341-.458.682-.569 1.137-.683.682-.114 1.819-.229 7.506-.229 5.8 0 9.553 0 12.054.229 4.549.34 5.914 1.364 6.596 4.435.341 1.366.911 3.184 1.366 4.433.227.457.454.796 1.023.685.796 0 1.705-.115 2.616-.343-.343-3.296-.684-6.482-.797-10.349 0-3.525.683-8.756.909-12.053-.568-.114-3.183.114-3.638.454-1.479 6.71-2.047 7.164-8.87 7.621-2.844.225-6.711.339-11.828.339h-7.279c-.795 0-1.478-.796-1.478-1.818-.114-7.961-.226-15.921-.226-23.881 0-2.618.226-3.753 1.704-4.21 1.252-.34 5.004-.568 11.715-.568h7.846c8.871 0 9.668 4.093 11.258 12.282.114.682.57 1.024 3.527 1.024 0-2.957.113-9.553 1.023-14.556.455-2.047.455-2.047-.569-2.729-.568-.343-1.25-.57-2.729-.57-5.686.114-13.989.682-20.925.682h-11.031c-6.937-.112-11.259-.34-14.785-.34h-3.98c-.568 0-.568.113-.568.567l-.227 2.618c0 .34 0 .34.113.454 2.729.682 4.89 1.022 6.028 1.478 1.137.228 1.364.796 1.478 1.478.114.683.795 5.686.795 20.811v19.675c0 11.6-.568 18.876-.795 20.583-.114 1.708-.569 2.502-5.8 3.412-.113 0-.454.227-.454.455-.115.908 0 3.297.227 3.412 9.097-.343 18.082-.797 27.178-.797 9.441 0 17.401.115 20.812.23 3.754.113 4.55.113 5.346.113" sketch:type="MSShapeGroup"/></g><path d="M104.781 324.032c1.664-2.512 4.735-9.674 6.144-15.326.128-.876-.512-1.881-1.792-2.636-.641-.502-.897-.251-1.025.249-1.023 2.641-2.688 5.779-6.016 9.044-3.839 3.77-9.086 7.538-18.431 7.538-28.67 0-36.349-23.235-36.349-36.927 0-12.685 3.84-22.232 8.832-28.26 6.911-7.913 15.743-11.555 24.575-11.555 6.084 0 11 1.349 14.178 2.678.933.597 1.741 1.024 2.422 1.18.241.141.495.286.678.413 2.432 1.631 3.073 3.013 3.967 5.274.769 2.51 1.793 5.902 2.305 7.913.256.754.512.88 2.303.503.769-.125 1.92-.378 1.92-.629-.46-4.966-.441-9.987.549-14.336 1.645-.311 3.298-.716 4.84-1.256 12.353-4.466 21.73-12.8 21.73-26.343 0-15.628-12.055-23.962-22.772-26.045-.892-.15-1.191-1.191-.446-1.636 1.34-.747 4.167-1.936 7.74-4.618 5.803-4.315 7.59-9.672 7.59-16.368 0-9.08-7.442-15.033-12.502-17.115-7.739-3.128-15.776-3.573-22.176-3.573-6.251 0-17.562.743-22.474 1.041-4.911.298-8.037.446-9.674.446l-1.489 4.017c9.078 2.83 9.526 3.572 9.675 7.146.297 4.763.297 14.138.297 25.002v22.921c0 5.21-.148 12.057-.595 23.069-.149 5.36-.447 6.25-4.465 8.185-1.339.744-3.575 1.625-5.615 2.738v.02c-4.907 1.95-9.785 4.703-13.697 8.918-8.704 9.422-11.008 20.849-11.008 29.516v.125c0 19.845 13.824 42.328 47.998 42.328 6.784 0 16.512-2.01 20.479-2.136 1.023-.125 1.536-.376 2.304-1.505zm-21.56-163.796c.15-1.339.597-1.637 2.234-1.934 2.678-.892 6.102-1.189 7.292-1.189 7.59 0 12.204 2.23 15.478 5.356 3.275 3.275 5.806 7.293 5.806 13.396v.148c0 6.994-2.978 13.098-8.186 16.224-2.828 1.486-8.186 1.933-10.122 1.933-2.231 0-5.655 0-8.036-.295-3.721-.449-4.466-.747-4.912-4.169-.149-2.085-.298-9.08-.298-16.519 0-8.186.447-11.759.744-12.951zm-.148 40.633c1.786-1.638 6.698-1.935 12.054-1.935 7.294 0 13.694.445 19.051 5.655 5.508 4.911 7.145 11.162 7.145 17.412 0 12.944-8.276 19.949-19.318 21.981-3.244-1.198-9.646-2.344-15.271-2.344-.441 0-.922.012-1.396.022l-.33-.31c-3.275-3.274-3.275-3.869-3.275-31.405 0-6.994.744-8.183 1.34-9.076z" sketch:type="MSShapeGroup"/></g></svg>