<?xml version="1.0" encoding="utf-8"?>
<!-- Generator: Adobe Illustrator 19.1.0, SVG Export Plug-In . SVG Version: 6.00 Build 0)  -->
<svg version="1.1" id="Layer_1" xmlns:sketch="http://www.bohemiancoding.com/sketch/ns"
	 xmlns="http://www.w3.org/2000/svg" xmlns:xlink="http://www.w3.org/1999/xlink" x="0px" y="0px" viewBox="-145 57 500 500"
	 style="enable-background:new -145 57 500 500;" xml:space="preserve">
<style type="text/css">
	.st0{fill:#FFFFFF;}
</style>
<title>Artboard 1</title>
<desc>Created with Sketch.</desc>
<g>
	<path class="st0" d="M18.6,266c5.2,0,9.2-0.1,12-0.3c7-0.5,7.5-0.9,9-7.8c0.5-0.4,3.1-0.6,3.7-0.5c-0.2,3.4-0.9,8.7-0.9,12.3
		c0.1,3.9,0.5,7.2,0.8,10.5c-0.9,0.2-1.9,0.4-2.7,0.4c-0.6,0.1-0.8-0.2-1.1-0.7c-0.5-1.3-1-3.1-1.4-4.5c-0.7-3.1-2.1-4.2-6.7-4.5
		c-2.5-0.2-6.4-0.2-12.3-0.2c-5.8,0-6.9,0.1-7.7,0.2c-0.5,0.1-0.8,0.2-1.2,0.7c-0.3,0.7-1,4.7-1,14.2c0,8.5,0,11.6,1.2,13.4
		c1.6,2.2,5.7,2.8,15.2,2.8c13.5,0,20-1.3,23.6-13.6c0.5-0.1,1.6,0,2.8,0.1c0.4,0.2,0.4,0.3,0.4,0.9c-0.2,5.3-2.1,12.7-3.6,16.1
		c-0.6,0.7-0.9,0.9-1.5,0.9c-0.8,0-1.6,0-5.4-0.1c-3.5-0.1-11.6-0.2-21.2-0.2c-9.3,0-18.4,0.5-27.7,0.8c-0.2-0.1-0.3-2.5-0.2-3.5
		c0-0.2,0.3-0.5,0.5-0.5c5.3-0.9,5.8-1.7,5.9-3.5c0.2-1.7,3.1-9.8,3.1-21.6l0.5-20.2c0-15.4-3.5-19.6-3.6-20.3
		c-0.1-0.7-0.4-1.3-1.5-1.5c-1.2-0.5-3.4-0.8-6.1-1.5c-0.1-0.1-0.1-0.1-0.1-0.5l0.2-2.7c0-0.5,0-0.6,0.6-0.6h4.1
		c6.5,1.4,7.7,1.5,14.8,1.6H23c7.1,0,15.1-1.9,20.9-2c1.5,0,2.2,0.2,2.8,0.6c1,0.7,1,0.7,0.6,2.8c-0.9,5.1-1,11.8-1,14.8
		c-3,0-3.5-0.4-3.6-1.1C41,239.2,40.2,235,31.1,235h-8c-6.8,0-10.7,0.2-11.9,0.6c-1.5,0.5-1.7,1.6-1.7,4.3c0,8.1,0.1,16.2,0.2,24.3
		c0,1.1,0.7,1.8,1.5,1.8H18.6z"/>
	<path class="st0" d="M129.5,307.1c-2,0.5-8.4,0.9-10.8-0.9c-2.4-1.7-6.9-5.9-6.9-5.9c-4.9-4.7-13-13.4-17-20.9
		c-2.7-5.3-3.9-6.4-11.1-6.4c-3.4,0-4.6,0.1-5.6,0.4c-0.7,0.2-1.5,0.8-1.5,1.7c0,8.8,0.1,15.6,0.5,22.4c0.1,1.7,0.6,2.7,1.2,3
		c1.1,1.2,6.2,1.8,8.9,2.5c0,0.6-0.6,2.5-0.8,3c-0.1,0.2-0.5,0.2-1.6,0.2c-1.3,0-8.1-1.8-12.9-1.8c-4.2,0-9,2-10.1,2
		c-1.5,0-1.7,0-1.9-0.2c-0.6-0.6-0.7-2.7-0.7-3.4c2.3-0.5,5.8-1.1,6.6-2.8c1.3-1.8,1.5-11.2,1.5-25.2v-13.7c0-6.7-0.1-15.1-0.2-20.6
		c-0.1-3.6-0.7-4.2-8.1-6l-0.4-2.7c-0.1-0.3,0.1-0.6,0.5-0.8c6-0.1,7.8,1.1,12.8,0.6c5.3-0.3,12-1.6,15.1-1.6
		c6.9,0,14.1,0.9,20.2,5.2c5.4,3.8,8.2,9.5,8.2,15.1c0,9.1-7.9,14.6-12.3,17.1c-0.7,0.3-1,0.9-0.8,1.7c0.6,2.4,4.8,16.4,11.3,22.8
		c4.8,4.8,8,9,16.3,11.1 M104.1,250.6c0-8.9-6.8-16.8-17.3-16.8c-3.9,0-6.1,0.5-7.8,1.3c-1.1,0.5-1.4,1.2-1.6,2.1
		c-0.6,3.6-0.9,9.5-0.8,20c0,10.9,0.3,11.2,0.8,11.6c0.6,0.2,2,0.3,3.7,0.3c9,0,14.5-1.3,18.2-5.7c2.8-3.4,4.8-7.9,4.8-12.8V250.6z"
		/>
	<path class="st0" d="M230.5,229c0.8,0,1,0.6,1.4,1.7c3.5,11.2,5.9,17,10,27.9c3.7,10.3,13.1,32.2,14.6,35.8
		c2.4,5.4,4.1,7.5,10.7,8.8c0.2,0-0.4,3.6-0.9,3.5c-9.8-2.3-10.1-1.7-14-1.7c-3.7,0-8.7,2.1-9.8,1.9c-0.5,0-0.7-0.1-0.8-0.4
		c-0.2-0.7-0.7-2.8-0.6-3c5.9-1.6,6.7-2.4,5.3-7c-0.6-2.3-4.3-11.7-5.8-15.4c-0.3-0.8-1-1.7-2-1.7c-8.4,0-18.2,0.1-25,0.4
		c-1.4,0.1-2,0.5-2.9,2.4c-1.2,2.4-5,12.4-5,15.5c0,2.6,0.9,3.5,6.7,5.2c0.1,0.7-0.5,2.9-0.9,3.2c-5.7-0.1-8.2-1.4-10.7-1.4
		c-2,0-7.9,1.4-8.3,1.3c-0.6,0-0.7-0.1-0.8-0.3c-0.5-0.7-0.8-2.9-0.6-3.2c5-1.4,6.1-3.9,9.3-9.8c3.2-6.4,16.4-38.9,23.2-54.9
		c1.3-3.1,2-5.1,2.7-6.9c0.1-0.6,0.2-0.7,0.7-0.9c0.5-0.2,2.4-1,3.5-1H230.5z M216.4,274.6c0.7,0,3.1,0.2,8.3,0.2
		c5.4,0,8.7-0.1,11.8-0.2c0.8,0,1.2-1,0.9-1.6c-4.5-12.3-6.8-19.1-10.4-28.4c-0.2-0.5-1-0.2-1.4,0.5c-5.4,12.6-6.9,16.4-11.5,28.3
		c-0.1,0.5,0.6,1.3,2.1,1.3H216.4z"/>
	<path class="st0" d="M68.2,363.8c0.3,0,1.9,0.4,2.3,0.7c0.3,0.3,0.3,0.6,0.2,0.9c-1,3.5-1.9,7.1-2.5,10.8c-0.2,0.8-0.8,1.2-1.4,1.3
		c-0.9,0.1-1.8,0.1-5.3,0.1c-3.5,0-7.6-0.3-21.9-0.3c-4.6,0-8.7,0.4-9.9,0.5c-0.9,0.1-1.4,0.1-1.6,0.1c-0.3-0.3-0.8-2.1-0.7-2.6
		c4.1-0.5,6.3-1.3,6.9-3.8c0.3-1.2,0.6-4.3,0.6-13v-17.4c0-7.2-0.2-11.8-0.4-13.6c-0.3-1.9-0.9-2.3-7-2.2c-0.2,0-0.5-0.5-0.3-1
		l0.7-1.5c0.1-0.4,0.2-0.4,0.3-0.4c2.5,0,7.5,1.3,10.2,1.2c4.3-0.1,6.5-1.5,10.9-1.7c0.3,0.3,0.6,1.9,0.6,2.5
		c-5.1,0.6-7.1,1-7.5,4.5c-0.3,2.5-0.5,8.1-0.4,14.9l0.1,10.3c0.1,13.4,0.2,16,0.3,17.5c0.1,1.2,0.6,1.9,1.6,2.1
		c1.4,0.5,4.1,0.7,7.9,0.7c5.6,0,11-0.2,13.8-4.5c0.9-1.5,1.6-3.1,2.2-5.7C67.8,363.9,67.8,363.8,68.2,363.8L68.2,363.8z"/>
	<path class="st0" d="M114.9,363.8c0.3,0,1.9,0.4,2.3,0.7c0.3,0.3,0.3,0.6,0.3,0.9c-1,3.5-2,7.1-2.5,10.8c-0.2,0.8-0.7,1.2-1.4,1.3
		c-0.8,0.1-1.8,0.1-5.3,0.1c-3.5,0-7.6-0.3-21.9-0.3c-4.6,0-8.7,0.4-9.9,0.5c-0.9,0.1-1.4,0.1-1.6,0.1c-0.3-0.3-0.8-2.1-0.7-2.6
		c4.1-0.5,6.3-1.3,6.9-3.8c0.3-1.2,0.6-4.3,0.6-13v-17.4c0-7.2-0.2-11.8-0.4-13.6c-0.2-1.9-0.9-2.3-6.9-2.2c-0.3,0-0.5-0.5-0.3-1
		l0.7-1.5c0.1-0.4,0.2-0.4,0.3-0.4c2.5,0,7.8,1.3,10.5,1.2c4.3-0.1,6.2-1.5,10.6-1.7c0.3,0.3,0.6,1.9,0.6,2.5
		c-5.1,0.6-7.1,1-7.5,4.5c-0.3,2.5-0.5,8.1-0.4,14.9l0.1,10.3c0.1,13.4,0.2,16,0.3,17.5c0.1,1.2,0.6,1.9,1.6,2.1
		c1.4,0.5,4.1,0.7,7.9,0.7c5.6,0,11-0.2,13.8-4.5c0.9-1.5,1.6-3.1,2.2-5.7C114.5,363.9,114.6,363.8,114.9,363.8L114.9,363.8z"/>
	<path class="st0" d="M166.8,349.3c0-8.6,3.2-15.2,8.5-20c3.6-3.4,7.9-5.3,13.6-6.9c5.1-1.4,10.5-1.7,13.2-1.7
		c2.7,0,7.6,0.5,10.8,1.5c0.4,0.2,0.8,0.2,0.8,0l0.8-1.3c0.2-0.3,0.2-0.3,0.9-0.3l1.7,0.1c0.2,0,0.4,0.2,0.4,0.6
		c0.2,5.5,0.8,9.8,1.2,11.9c0.2,0.9,0.2,1.7,0.1,2c-0.2,0.2-0.3,0.2-0.9,0.2h-1.2c-0.2,0-0.6-0.1-0.8-0.7
		c-2.3-6.1-7.8-11.1-17.3-11.1c-4.7,0-9.7,1.2-14.5,5.3c-3.8,3.5-8.7,10.1-8.7,20.7c0,5.6,1.5,12.5,7.2,18
		c6.5,6.3,15.7,7.4,20.1,7.4c2.5,0,5.8-0.9,7.1-2c1.5-1.1,2.3-5,2.3-11c0-8.1-0.3-9.1-3.2-9.7c-0.8-0.2-4.5-0.6-5.4-0.8
		c-0.3-0.2-0.7-0.3-0.9-0.6c-0.3-0.4-0.3-1.1-0.4-1.6c0-0.4,0.2-0.7,0.4-0.7c4.8,0,8.1,1.5,11.8,1.5c4.5,0,7.9-1.5,9.2-1.5
		c0.2,0.2,0,2.8-0.2,3.3c-0.9,0.1-2,0.3-3.3,0.4c-0.2,0.7-0.6,6.7-0.6,21c0,1.6-0.4,2.2-1.3,3c-0.8,0.7-2,0.8-2.4,0.8
		c-1.9,0-3.3,0-6.7,0.3c-3,0.3-5.7,0.5-9.1,0.5c-11.1,0-19.1-2.9-25.1-8.5C170.2,365.1,166.8,358.3,166.8,349.3L166.8,349.3z"/>
	<g>
		<path class="st0" d="M-75.9,246.5c0-11.1-2.1-20.8-2.4-25.7c-0.2-3.6-0.6-4.4-9.9-7.3l1.5-4.1c1.7,0,4,0,8.9,1.1
			c11.1,2.5,19.1-1.4,25.5-1.4c6.5,0,13.2-0.8,21.1,2.4c5.2,2.1,12.8,8.2,12.8,17.5c0,6.8-1.8,12.3-7.8,16.7c-3.6,2.7-6.5,4-7.9,4.7
			c-0.8,0.4-0.5,1.5,0.5,1.7c10.9,2.1,23.3,10.6,23.3,26.6c0,13.8-9.6,22.4-22.2,26.9c-6.1,2.1-13.8,2.3-16.4,2.3
			c-2.6,0-16.6-4.5-25.1-2.3c-6.3,1.6-10.9,2.5-12.8,2.5c-0.3,0-8.9,2.1-8.7,1.8c0.8-0.8,11-7.4,12.4-8.2c4.1-2,3.5-3,4.6-8.4
			c2.2-10.9,2.7-18.1,2.7-23.4V246.5z M-52,302.3c14.7,0,27.1-7.1,27.1-23.1c0-6.4-1.7-12.8-7.3-17.8c-5.5-5.3-12-5.8-19.5-5.8
			c-5.5,0-10.5,0.3-12.3,2c-0.6,0.9-1.4,2.1-1.4,9.3c0,28.1,0,28.7,3.4,32.1c3.3,3.3,4.7,3.3,9.9,3.3H-52z M-32.4,232
			c0-6.2-2.6-10.3-5.9-13.7c-3.4-3.2-8.1-5.5-15.8-5.5c-1.2,0-4.7,0.3-7.5,1.2c-1.7,0.3-2.1,0.6-2.3,2c-0.3,1.2-0.8,4.9-0.8,13.2
			c0,7.6,0.1,14.7,0.3,16.9c0.5,3.5,1.2,3.8,5,4.3c2.4,0.3,5.9,0.3,8.2,0.3c2,0,7.5-0.5,10.3-2c5.3-3.2,8.4-9.4,8.4-16.6V232z"/>
	</g>
	<path class="st0" d="M155.1,266c5.2,0,9.1-0.1,12-0.3c7-0.5,7.5-0.9,9-7.8c0.5-0.4,3.1-0.6,3.7-0.5c-0.2,3.4-0.9,8.7-0.9,12.3
		c0.1,3.9,0.5,7.2,0.8,10.5c-0.9,0.2-1.9,0.4-2.7,0.4c-0.6,0.1-0.8-0.2-1-0.7c-0.5-1.3-1.1-3.1-1.4-4.5c-0.7-3.1-2.1-4.2-6.7-4.5
		c-2.5-0.2-6.3-0.2-12.3-0.2c-5.8,0-7,0.1-7.6,0.2c-0.5,0.1-0.8,0.2-1.2,0.7c-0.4,0.7-1,4.7-1,14.2c0,8.5,0,11.6,1.2,13.4
		c1.6,2.2,5.7,2.8,15.2,2.8c13.6,0,20-1.3,23.6-13.6c0.5-0.1,1.6,0,2.8,0.1c0.3,0.2,0.3,0.3,0.3,0.9c-0.2,5.3-2.1,12.7-3.6,16.1
		c-0.6,0.7-0.9,0.9-1.5,0.9c-0.8,0-1.6,0-5.4-0.1c-3.5-0.1-11.6-0.2-21.2-0.2c-9.3,0-18.4,0.5-27.7,0.8c-0.2-0.1-0.3-2.5-0.2-3.5
		c0-0.2,0.3-0.5,0.5-0.5c5.3-0.9,5.8-1.7,5.9-3.5c0.2-1.7,3.1-9.8,3.1-21.6l0.5-20.2c0-15.4-3.5-19.6-3.6-20.3
		c-0.1-0.7-0.4-1.3-1.5-1.5c-1.2-0.5-3.4-0.8-6.1-1.5c-0.1-0.1-0.1-0.1-0.1-0.5l0.2-2.7c0-0.5,0-0.6,0.6-0.6h4
		c6.5,1.4,7.8,1.5,14.8,1.6h11.9c7.1,0,15.1-1.9,20.9-2c1.5,0,2.2,0.2,2.8,0.6c1,0.7,1,0.7,0.6,2.8c-0.9,5.1-1,11.8-1,14.8
		c-3,0-3.5-0.4-3.6-1.1c-1.6-8.3-2.4-12.5-11.5-12.5h-8c-6.8,0-10.7,0.2-11.9,0.6c-1.5,0.5-1.7,1.6-1.7,4.3c0,8.1,0.1,16.2,0.2,24.3
		c0,1.1,0.7,1.8,1.5,1.8H155.1z"/>
	<path class="st0" d="M140.2,347.1c3.8,0,6.7-0.1,8.8-0.2c5.1-0.3,5.5-0.7,6.6-5.7c0.3-0.2,2.3-0.4,2.7-0.3c-0.2,2.4-0.7,6.3-0.7,9
		c0.1,2.9,0.3,5.3,0.6,7.7c-0.7,0.2-1.3,0.2-2,0.2c-0.4,0.1-0.6-0.2-0.8-0.5c-0.4-0.9-0.8-2.3-1-3.3c-0.5-2.3-1.5-3-4.9-3.3
		c-1.9-0.2-4.7-0.2-9-0.2c-4.2,0-5.1,0.1-5.6,0.2c-0.3,0.1-0.6,0.2-0.9,0.5c-0.3,0.5-0.8,3.5-0.8,10.4c0,6.2,0,8.5,0.8,9.8
		c1.2,1.6,4.2,2,11.1,2c9.9,0,14.7-0.9,17.3-9.9c0.3-0.1,1.2,0,2,0.1c0.2,0.2,0.2,0.3,0.2,0.7c-0.2,3.9-1.5,9.3-2.6,11.8
		c-0.4,0.5-0.7,0.7-1.1,0.7c-0.6,0-1.2,0-4-0.1c-2.5-0.1-8.5-0.2-15.5-0.2c-6.8,0-13.5,0.3-20.2,0.6c-0.2-0.1-0.3-1.9-0.2-2.5
		c0-0.2,0.3-0.4,0.3-0.4c3.9-0.7,4.2-1.3,4.3-2.5c0.2-1.3,2.3-7.2,2.3-15.8l0.4-14.8c0-11.3-2.5-14.4-2.6-14.9
		c-0.1-0.5-0.3-0.9-1.1-1.1c-0.8-0.3-2.5-0.6-4.5-1.1c-0.1-0.1-0.1-0.1-0.1-0.3l0.2-1.9c0-0.4,0-0.4,0.4-0.4h3
		c4.8,1.1,5.7,1.1,10.8,1.2h8.7c5.2,0,11-1.4,15.3-1.4c1.1,0,1.6,0.2,2,0.4c0.8,0.5,0.8,0.5,0.4,2c-0.7,3.7-0.8,8.6-0.8,10.8
		c-2.2,0-2.5-0.3-2.6-0.8c-1.2-6.1-1.8-9.2-8.4-9.2h-5.8c-5,0-7.8,0.2-8.7,0.4c-1.1,0.3-1.3,1.2-1.3,3.1c0,5.9,0.1,11.9,0.2,17.8
		c0,0.8,0.5,1.3,1.1,1.3H140.2z"/>
	<path class="st0" d="M244.9,346.3c3.8,0,6.7-0.1,8.8-0.3c5.1-0.3,5.5-0.7,6.6-5.7c0.3-0.2,2.3-0.4,2.7-0.3c-0.2,2.5-0.7,6.4-0.7,9
		c0.1,2.9,0.3,5.3,0.6,7.7c-0.7,0.2-1.3,0.3-1.9,0.3c-0.4,0.1-0.6-0.2-0.8-0.5c-0.3-0.9-0.8-2.3-1-3.3c-0.5-2.3-1.5-3-4.9-3.3
		c-1.9-0.2-4.7-0.2-9-0.2c-4.2,0-5.1,0.1-5.6,0.2c-0.3,0.1-0.6,0.2-0.8,0.5c-0.3,0.5-0.8,3.5-0.8,10.4c0,6.2,0,8.5,0.9,9.8
		c1.2,1.6,4.1,2,11.1,2c9.9,0,14.7-0.9,17.3-9.9c0.3-0.1,1.2,0,2,0.1c0.3,0.2,0.3,0.3,0.3,0.7c-0.2,3.9-1.5,9.3-2.6,11.8
		c-0.4,0.5-0.7,0.7-1.1,0.7c-0.6,0-1.2,0-4-0.1c-2.5-0.1-8.5-0.2-15.5-0.2c-6.8,0-13.5,0.3-20.2,0.6c-0.2-0.1-0.3-1.9-0.2-2.5
		c0-0.2,0.2-0.3,0.3-0.3c3.9-0.7,4.2-1.3,4.3-2.6c0.2-1.3,2.3-7.2,2.3-15.8l0.4-14.8c0-11.2-2.6-14.4-2.6-14.9
		c-0.1-0.5-0.3-0.9-1.1-1.1c-0.8-0.3-2.5-0.6-4.5-1.1c-0.1-0.1-0.1-0.1-0.1-0.3l0.2-2c0-0.3,0-0.4,0.4-0.4h3
		c4.8,1.1,5.7,1.1,10.8,1.2h8.7c5.2,0,11-1.4,15.3-1.4c1.1,0,1.6,0.2,2,0.4c0.8,0.5,0.8,0.5,0.4,2c-0.7,3.7-0.8,8.6-0.8,10.8
		c-2.2,0-2.5-0.2-2.6-0.8c-1.2-6.1-1.8-9.1-8.4-9.1h-5.9c-5,0-7.8,0.2-8.7,0.4c-1.1,0.3-1.3,1.2-1.3,3.1c0,5.9,0.1,11.9,0.2,17.8
		c0,0.8,0.5,1.4,1.1,1.4H244.9z"/>
	<g>
		<path class="st0" d="M-112,343.4c0-8.7,2.3-20.2,10.8-29.7c6.4-7.1,15.5-10.1,23-12c5.4-1.4,13-2.2,18.2-2.2
			c5.8,0,12.5,1.3,15.5,2.5c1.6,0.5,2.5,0.1,5.2-1c0.4-0.1,0.6,0,1.5,0.3c1.3,0.5,2.2-1,2.1-0.6c-2.5,5.2-3.4,13.9-2.8,20.8
			c0,0.3-1.1,0.5-1.9,0.6c-1.8,0.4-2,0.3-2.3-0.5c-0.5-2-1.5-5.4-2.3-8c-0.9-2.3-1.5-3.6-3.9-5.3c-2.1-1.5-8.4-4.3-17-4.3
			c-8.7,0-17.4,3.6-24.2,11.6c-4.9,6.1-8.7,15.6-8.7,28.4c0,13.7,7.6,37.1,35.8,37.1c9.2,0,14.4-3.8,18.2-7.6
			c3.3-3.3,4.9-6.4,5.9-9.1c0.1-0.5,0.4-0.8,1-0.2c1.3,0.7,1.9,1.8,1.8,2.6c-1.4,5.7-4.4,12.9-6.1,15.4c-0.8,1.1-1.3,1.4-2.3,1.5
			c-3.9,0.1-13.5,2.1-20.2,2.1c-33.7,0-47.3-22.6-47.3-42.5V343.4z"/>
	</g>
	<g>
		<path class="st0" d="M-22.9,159.1c-1.8,0.4-3.3,1.2-5.4,3.2c-3.6,3.6-3.3,8.6,0.1,12.1c3.7,3.6,8.7,3.4,12,0.2
			c1.5-1.5,1.8-2.1,2.2-2.8l-4.7-4.7l-3.3,3.3l-1.8-1.8l5.5-5.5l8.1,8.1c-0.6,1.1-1.6,3-4,5.5c-4.9,4.9-11.4,5.1-16.3,0.1
			c-4.8-4.8-4.5-11.5,0.2-16.2c2.3-2.3,3.6-3,5.4-3.8L-22.9,159.1z"/>
		<path class="st0" d="M-11.6,144.1c5.3-4.1,11.4-2.7,15.4,2.5c4.1,5.3,3.9,11.4-1.4,15.5c-5.3,4.1-11.3,2.8-15.4-2.5
			C-17,154.5-16.9,148.2-11.6,144.1z M0.7,160c4-3.1,3.1-7.8,0.5-11.3c-2.7-3.5-7.2-5.4-11-2.4c-3.9,2.9-3.2,7.7-0.5,11.3
			C-7.7,161.1-3.4,163.1,0.7,160z"/>
		<path class="st0" d="M3.2,133.9l5.6-3.3c5.6-3.3,12.2-2.4,15.6,3.4c3.7,6.4,1.8,11.9-4.5,15.6l-5.6,3.3L3.2,133.9z M15.6,148.9
			l2.9-1.7c4.7-2.7,6-6.5,3.1-11.4c-2.6-4.4-7.2-5.3-11.1-3l-3.2,1.9L15.6,148.9z"/>
		<path class="st0" d="M35.1,117.1l3-1.1l3.2,8.6l9.9-3.7l-3.2-8.6l3-1.1l7.7,20.6l-3,1.1l-3.5-9.4l-9.9,3.7l3.5,9.4l-3,1.1
			L35.1,117.1z"/>
		<path class="st0" d="M66.1,107.1l3.2-0.8l14.1,19.3l-3.3,0.8l-3.4-4.9l-10.5,2.5l-0.9,5.9l-3.2,0.8L66.1,107.1z M68.3,109.7
			l-1.8,11.6l8.5-2L68.3,109.7z"/>
		<path class="st0" d="M94.4,105.6c-1.7-0.4-2.6-0.6-4.2-0.4c-1.8,0.2-3.7,1.1-3.5,3.4c0.5,4.2,9.8,2.1,10.7,9.3
			c0.6,4.7-2.8,7-7.2,7.5c-1.5,0.2-3.1-0.1-4.6-0.3l0-3c1.1,0.3,3.1,0.7,4.7,0.5c1.8-0.2,4.2-1.5,3.8-4.1c-0.6-4.9-9.8-2.4-10.7-9.2
			c-0.5-3.9,2.3-6.3,6.3-6.8c1.4-0.2,3.2-0.1,4.8,0.2L94.4,105.6z"/>
		<path class="st0" d="M112.9,101l5.2,0.3l6,18.6l7.7-17.9l5.2,0.3l-1.1,22l-3.1-0.2l1-19h-0.1l-8.3,18.7l-3.1-0.2l-6.3-19.4h-0.1
			l-1,19l-3.2-0.2L112.9,101z"/>
		<path class="st0" d="M152.6,104.9l3.2,0.6l4.9,23.4l-3.4-0.7l-1.1-5.9l-10.6-2.1l-3.3,5l-3.2-0.6L152.6,104.9z M153.6,108.1
			l-6.4,9.9l8.6,1.7L153.6,108.1z"/>
		<path class="st0" d="M170.8,108.9l6.2,2c6.2,2,9.9,7.5,7.8,14c-2.3,7-7.8,9.2-14.7,7l-6.2-2L170.8,108.9z M167.8,128.2l3.1,1
			c5.2,1.7,8.8,0.1,10.6-5.3c1.6-4.9-0.8-8.9-5.1-10.3l-3.5-1.2L167.8,128.2z"/>
		<path class="st0" d="M195,117.5l11.2,5.1l-1.1,2.5l-8.4-3.8l-2.7,5.9l7.6,3.5l-1.2,2.5l-7.6-3.5l-3,6.6l8.4,3.8l-1.2,2.5
			l-11.2-5.1L195,117.5z"/>
		<path class="st0" d="M230,136.2c5.6,3.7,6.1,10,2.4,15.4c-3.7,5.6-9.6,7.3-15.2,3.5c-5.6-3.8-6.2-9.8-2.4-15.4
			C218.5,134.3,224.5,132.4,230,136.2z M218.8,152.8c4.2,2.8,8.4,0.6,10.8-3.1c2.5-3.7,2.9-8.5-1.2-11.2c-4-2.7-8.3-0.6-10.8,3.1
			C215.2,145.2,214.6,149.9,218.8,152.8z"/>
		<path class="st0" d="M243.9,146.8l8.9,7.6l-1.8,2.1l-6.5-5.5l-4.2,4.9l6.2,5.3l-1.8,2.1l-6.2-5.3l-6.5,7.6l-2.4-2L243.9,146.8z"/>
		<path class="st0" d="M271.5,173.2c4.4,5.1,3.2,11.2-1.8,15.5c-5.1,4.4-11.2,4.5-15.6-0.6c-4.4-5.1-3.3-11.1,1.8-15.5
			C260.9,168.3,267.1,168.1,271.5,173.2z M256.3,186.2c3.3,3.9,7.9,2.8,11.3-0.1c3.4-2.9,5-7.4,1.8-11.1c-3.1-3.7-7.9-2.8-11.3,0.1
			C254.8,177.9,253,182.3,256.3,186.2z"/>
		<path class="st0" d="M282.5,187.6l2.4,3.6l-9.5,17.8l0,0.1l14.9-9.7l1.7,2.6l-18.4,12.1l-2.2-3.4l9.7-18.3l0-0.1l-15.2,9.9
			l-1.7-2.6L282.5,187.6z"/>
		<path class="st0" d="M296,209.3l5.6,11l-2.5,1.2l-4.1-8.2l-5.7,2.9l3.8,7.5l-2.5,1.2l-3.8-7.5l-6.5,3.3l4.2,8.2l-2.5,1.3l-5.6-11
			L296,209.3z"/>
		<path class="st0" d="M308.2,236.3l1.9,5.7c1.4,4.3,1,7.8-2.9,9.1c-2.9,0.9-4.9-0.3-6.4-2.7l-0.1,0c0.7,2.9-0.5,5.6-3.4,6.5
			c-4.5,1.5-6.8-1.9-8.2-6.1l-1.8-5.6L308.2,236.3z M290.7,245.4l0.7,2.2c0.9,2.7,2.3,4.9,5.1,4c3.2-1.1,2.7-4.1,1.9-6.6l-0.6-1.9
			L290.7,245.4z M300.3,242.3l0.5,1.6c1,2.9,2,5.3,5.1,4.3c2.5-0.8,2.4-3.1,1.9-4.9l-1-3.2L300.3,242.3z"/>
		<path class="st0" d="M314.6,257.1l0.7,3.1l-18.8,4.2l2,9l-2.7,0.6l-2.7-12.1L314.6,257.1z"/>
		<path class="st0" d="M319.8,284.5c0.7,6.6-3.7,11.1-10.2,11.8c-6.7,0.7-11.7-2.6-12.5-9.3c-0.7-6.7,3.5-11.1,10.2-11.8
			C313.8,274.5,319.1,277.9,319.8,284.5z M299.9,286.7c0.6,5.1,5,6.8,9.4,6.3c4.4-0.5,8.3-3.3,7.8-8.2c-0.5-4.8-4.9-6.8-9.4-6.3
			C303.3,279,299.4,281.7,299.9,286.7z"/>
		<path class="st0" d="M321,312.2c-0.1,6.7-5.1,10.5-11.6,10.4c-6.7-0.1-11.3-4.1-11.2-10.8c0.1-6.7,4.9-10.5,11.6-10.4
			C316.3,301.5,321.1,305.5,321,312.2z M301,311.8c-0.1,5.1,4.1,7.3,8.5,7.4c4.5,0.1,8.7-2.2,8.8-7.1c0.1-4.9-4-7.3-8.5-7.4
			C305.3,304.6,301.1,306.7,301,311.8z"/>
		<path class="st0" d="M319.6,330.2l-1,6.4c-1,6.5-5.8,11-12.5,10c-7.3-1.1-10.4-6.1-9.3-13.3l1-6.4L319.6,330.2z M300.1,330.4
			l-0.5,3.3c-0.8,5.4,1.3,8.7,6.9,9.6c5.1,0.8,8.6-2.2,9.3-6.7l0.6-3.7L300.1,330.4z"/>
		<path class="st0" d="M310.3,372.1l-1.1,3.1l-23.8,1.7l1.1-3.2l6-0.3l3.5-10.2l-4.5-3.9l1.1-3.1L310.3,372.1z M307,372.6l-8.9-7.7
			l-2.8,8.3L307,372.6z"/>
		<path class="st0" d="M303.8,389.2l-1.3,2.9l-17.5-8.1l-3.9,8.4l-2.5-1.2l5.2-11.2L303.8,389.2z"/>
		<path class="st0" d="M296,405.3l-1.6,2.7l-16.7-9.6l-4.6,8l-2.4-1.4l6.2-10.7L296,405.3z"/>
		<path class="st0" d="M281.1,428.9l-3.5,4.5c-2.8,3.6-6.3,5.6-10.3,2.5c-3.9-3-2.9-7.1-0.4-10.2l1.9-2.4l-6.9-5.4l1.9-2.5
			L281.1,428.9z M271,424.9l-1.9,2.5c-1.2,1.5-1.9,4.1,0.3,5.9c2.2,1.7,4.8,0,6-1.5l1.7-2.1L271,424.9z"/>
		<path class="st0" d="M268.5,444.5l-8.5,9l-2-1.9l6.3-6.7l-4.7-4.4l-5.7,6.1l-2-1.9l5.7-6.1l-5.3-5l-6.3,6.7l-2-1.9l8.5-9
			L268.5,444.5z"/>
		<path class="st0" d="M247.4,465.3c-5.1,4.3-11.2,3.1-15.4-1.9c-4.3-5.1-4.4-11.2,0.8-15.5c5.1-4.3,11.2-3.2,15.5,1.9
			C252.4,454.8,252.6,461,247.4,465.3z M234.6,450c-3.9,3.3-2.8,7.9,0,11.3c2.9,3.4,7.4,5.1,11.1,1.9c3.7-3.1,2.9-7.8,0-11.3
			C242.9,448.6,238.5,446.8,234.6,450z"/>
		<path class="st0" d="M233.3,475.9l-4.8,3.2c-3.8,2.5-7.8,3.2-10.5-0.9c-2.7-4.1-0.5-7.6,2.9-9.8l2.6-1.7l-4.9-7.3l2.6-1.7
			L233.3,475.9z M224.9,468.9l-2.6,1.7c-1.6,1.1-3.2,3.3-1.5,5.7c1.5,2.3,4.5,1.6,6.1,0.5l2.2-1.5L224.9,468.9z"/>
		<path class="st0" d="M216.4,486.6l-2.8,1.5l-9.1-17l-8.1,4.4l-1.3-2.4l10.9-5.9L216.4,486.6z"/>
		<path class="st0" d="M200.3,494.9l-11.4,4.8l-1.1-2.6l8.5-3.6l-2.5-5.9l-7.7,3.3l-1.1-2.5l7.7-3.3l-2.8-6.7l-8.5,3.6l-1.1-2.6
			l11.4-4.8L200.3,494.9z"/>
		<path class="st0" d="M171.5,502c1.7,0.1,2.7,0.1,4.2-0.4c1.7-0.5,3.5-1.8,2.8-4c-1.3-4-10-0.2-12.2-7.1c-1.4-4.5,1.5-7.4,5.7-8.7
			c1.5-0.5,3.1-0.5,4.6-0.5l0.6,2.9c-1.2-0.1-3.1-0.1-4.7,0.4c-1.7,0.6-3.8,2.3-3,4.7c1.5,4.7,10.1,0.5,12.2,7.1
			c1.2,3.7-1.1,6.7-4.9,7.9c-1.4,0.4-3.1,0.7-4.7,0.7L171.5,502z"/>
		<path class="st0" d="M145.3,511.5c-6.6,1-11.2-3.3-12.2-9.7c-1-6.6,2.2-11.9,8.8-12.8c6.6-1,11.2,3.1,12.2,9.7
			C155.1,505.1,151.9,510.5,145.3,511.5z M142.3,491.7c-5,0.8-6.6,5.3-5.9,9.6c0.7,4.4,3.6,8.2,8.4,7.4c4.8-0.7,6.6-5.2,5.9-9.6
			C150.2,494.8,147.4,490.9,142.3,491.7z"/>
		<path class="st0" d="M127.8,513l-11.7,0.4l-0.1-2.8l8.6-0.3l-0.2-6.4l-8.2,0.3l-0.1-2.8l8.2-0.3l-0.4-10l3.2-0.1L127.8,513z"/>
		<path class="st0" d="M95.6,509.7l6.8,0.7l-0.3,2.8l-16.8-1.7l0.3-2.8l6.8,0.7l1.9-19.2l3.1,0.3L95.6,509.7z"/>
		<path class="st0" d="M79.4,510.5l-3.1-0.7l1.9-9L68,498.6l-1.9,9l-3.1-0.7l4.6-21.5l3.1,0.7l-2.1,9.8l10.3,2.2l2.1-9.8l3.1,0.7
			L79.4,510.5z"/>
		<path class="st0" d="M54.8,504.6l-11.7-3.9l0.9-2.6l8.7,2.9l2-6.1l-7.9-2.7l0.9-2.6l7.9,2.6l2.3-6.9l-8.7-2.9l0.9-2.6l11.7,3.9
			L54.8,504.6z"/>
		<path class="st0" d="M26.8,493.8l-11-5.6l1.3-2.5l8.2,4.2l2.9-5.7l-7.5-3.8l1.3-2.5l7.5,3.8l3.3-6.5l-8.2-4.2l1.3-2.5l11,5.6
			L26.8,493.8z"/>
		<path class="st0" d="M3.3,480.6l-2.8-1.8l4.3-23.5l2.9,1.9l-1.2,5.9l9,5.9l4.9-3.4l2.8,1.8L3.3,480.6z M3.6,477.3l9.7-6.7
			l-7.3-4.8L3.6,477.3z"/>
		<path class="st0" d="M-11.7,470.2l-4.2-3.5c-3.3-2.8-6.1-6-2.7-10.1c1.7-2.1,4.5-2.2,6.7-0.9l0-0.1c-0.5-0.9-0.6-1.6-0.2-3.1
			l2.4-9.4l2.8,2.3l-2.3,8c-0.6,2.3,0.2,2.9,1.5,4l1.5,1.2l6.3-7.5l2.4,2L-11.7,470.2z M-8.1,460.9l-2.1-1.7c-2.3-1.9-4.5-2-5.9-0.4
			c-1.3,1.5-0.9,3.5,1.3,5.3l2.3,1.9L-8.1,460.9z"/>
		<path class="st0" d="M-28.9,451.1l4.8,4.9l-2,1.9l-11.8-12l2-2l4.8,4.9l13.7-13.5l2.2,2.3L-28.9,451.1z"/>
		<path class="st0" d="M-41.9,441.5l-2-2.5l7.2-5.7l-6.5-8.3l-7.2,5.7l-2-2.5l17.3-13.7l2,2.5l-7.9,6.2l6.5,8.3l7.9-6.2l1.9,2.5
			L-41.9,441.5z"/>
	</g>
	<path class="st0" d="M10.6,325.8c13,8,18.5,25.7,10.4,38.9c-5.5,8.9-13.8,12.8-19.9,14.2c-8,1.8-15.5-0.5-19.4-2.9
		c-7.6-4.7-13.8-13.2-15.3-21.7c-1.2-6.3,0.4-14.2,4-20.1c3.7-6,10.1-10.9,18.8-12.5C-3.8,320.4,4.2,321.9,10.6,325.8L10.6,325.8z
		 M6.6,327c-3.5-2.1-7.9-3-14-1.3c-6.5,2-11.6,7.9-14.4,12.5c-4.1,6.7-5.3,14-3.8,20.5c1.8,7.7,5.2,12.3,10,15.3
		c7.4,4.6,19.3,3,27.6-10.4c4-6.5,6.2-14,4.5-22.4C15.5,336.1,12.7,330.7,6.6,327L6.6,327z"/>
</g>
</svg>
