<?xml version="1.0" encoding="utf-8"?>
<!-- Generator: Adobe Illustrator 19.1.0, SVG Export Plug-In . SVG Version: 6.00 Build 0)  -->
<svg version="1.1" id="Layer_1" xmlns="http://www.w3.org/2000/svg" xmlns:xlink="http://www.w3.org/1999/xlink" x="0px" y="0px"
	 viewBox="0 0 500 308.7" style="enable-background:new 0 0 500 308.7;" xml:space="preserve">
<style type="text/css">
	.st0{fill:#010101;}
</style>
<path class="st0" d="M250,162.6l-4-1.2L93.1,116.2v42.7L250,205.3l0,0l156.9-46.4v-42.7L254,161.4L250,162.6z"/>
<path class="st0" d="M500,74L250,0l0,0L0,74l250,74l0,0l169.6-50.2v191.8c0,3.2,2.6,5.8,5.8,5.8s5.8-2.6,5.8-5.8V94.3l7-2.1v210.6
	c0,3.2,2.6,5.8,5.8,5.8c3.2,0,5.9-2.6,5.9-5.8V88.8l7-2.1v202.8c0,3.2,2.6,5.8,5.8,5.8c3.2,0,5.8-2.6,5.8-5.8V83.9
	c0-0.2-0.1-0.4-0.1-0.6L500,74L500,74z"/>
</svg>
