<?xml version="1.0" encoding="utf-8"?>
<!-- Generator: Adobe Illustrator 19.1.0, SVG Export Plug-In . SVG Version: 6.00 Build 0)  -->
<svg version="1.1" id="Layer_1" xmlns="http://www.w3.org/2000/svg" xmlns:xlink="http://www.w3.org/1999/xlink" x="0px" y="0px"
	 viewBox="0 0 500 477.3" style="enable-background:new 0 0 500 477.3;" xml:space="preserve">
<style type="text/css">
	.st0{fill:none;}
	.st1{fill:#010101;}
</style>
<g>
	<rect x="186.8" y="178.1" class="st0" width="126.3" height="126.3"/>
</g>
<g>
	<path class="st1" d="M454.5,45.5h-68.2V0h-45.5v136.4h45.5V90.9h68.2v340.9H45.5V90.9h45.5V45.5H45.5C20.4,45.5,0,65.8,0,90.9
		v340.9c0,25.1,20.4,45.5,45.5,45.5h409.1c25.1,0,45.5-20.4,45.5-45.5V90.9C500,65.8,479.6,45.5,454.5,45.5z"/>
	<polygon class="st1" points="136.4,90.9 295.5,90.9 295.5,45.5 136.4,45.5 136.4,0 90.9,0 90.9,136.4 136.4,136.4 	"/>
	<rect x="90.9" y="181.8" class="st1" width="90.9" height="90.9"/>
	<rect x="204.5" y="181.8" class="st1" width="90.9" height="90.9"/>
	<rect x="318.2" y="181.8" class="st1" width="90.9" height="90.9"/>
	<rect x="90.9" y="295.5" class="st1" width="90.9" height="90.9"/>
	<rect x="204.5" y="295.5" class="st1" width="90.9" height="90.9"/>
</g>
</svg>
