<?xml version="1.0" encoding="utf-8"?>
<!-- Generator: Adobe Illustrator 19.1.0, SVG Export Plug-In . SVG Version: 6.00 Build 0)  -->
<svg version="1.1" id="Layer_1" xmlns="http://www.w3.org/2000/svg" xmlns:xlink="http://www.w3.org/1999/xlink" x="0px" y="0px"
	 viewBox="0 262.7 500 477.3" style="enable-background:new 0 262.7 500 477.3;" xml:space="preserve">
<style type="text/css">
	.st0{fill:none;}
	.st1{fill:#C85E28;}
</style>
<g>
	<rect x="186.8" y="440.8" class="st0" width="126.3" height="126.3"/>
</g>
<g>
	<path class="st1" d="M454.5,308.2h-68.2v-45.5h-45.5v136.4h45.5v-45.5h68.2v340.9h-409V353.6H91v-45.4H45.5
		C20.4,308.2,0,328.5,0,353.6v340.9C0,719.6,20.4,740,45.5,740h409.1c25.1,0,45.5-20.4,45.5-45.5V353.6
		C500,328.5,479.6,308.2,454.5,308.2z"/>
	<polygon class="st1" points="136.4,353.6 295.5,353.6 295.5,308.2 136.4,308.2 136.4,262.7 90.9,262.7 90.9,399.1 136.4,399.1 	"/>
	<rect x="90.9" y="444.5" class="st1" width="90.9" height="90.9"/>
	<rect x="204.5" y="444.5" class="st1" width="90.9" height="90.9"/>
	<rect x="318.2" y="444.5" class="st1" width="90.9" height="90.9"/>
	<rect x="90.9" y="558.2" class="st1" width="90.9" height="90.9"/>
	<rect x="204.5" y="558.2" class="st1" width="90.9" height="90.9"/>
</g>
</svg>
