<?xml version="1.0" encoding="utf-8"?>
<!-- Generator: Adobe Illustrator 19.1.0, SVG Export Plug-In . SVG Version: 6.00 Build 0)  -->
<svg version="1.1" id="Layer_1" xmlns="http://www.w3.org/2000/svg" xmlns:xlink="http://www.w3.org/1999/xlink" x="0px" y="0px"
	 viewBox="0 288.3 500 425.7" style="enable-background:new 0 288.3 500 425.7;" xml:space="preserve">
<style type="text/css">
	.st0{fill:#C85E28;}
</style>
<g>
	<g>
		<g>
			<path class="st0" d="M500.7,714l-107-129.7l-7.4-9.5h-36.7l-30.6,40l42,0.1l29.7,47.3H106l27.7-47.3H177l-29-40.1h-40l-6.9,9.9
				L0,714H500.7z"/>
		</g>
		<g>
			<path class="st0" d="M285.3,419.1c0-20-16.2-36.3-36.3-36.3c-20,0-36.3,16.3-36.3,36.3s16.2,36.3,36.3,36.3
				S285.3,439.2,285.3,419.1z"/>
		</g>
		<g>
			<path class="st0" d="M237,642l1.8,0.8c3.2,1.4,6.7,2.1,10.2,2.1c3.4,0,6.8-0.7,10-2l1.9-0.8c3.9-1.6,7.3-4.2,9.9-7.4
				c11.9-14.4,115.5-142.6,115.5-215.4c0-96.1-82.1-131-137.3-131c-53,0-137.2,35.6-137.2,131c0,72.8,103.6,201,115.4,215.4
				C229.8,637.9,233.2,640.4,237,642z M249,340c3.5,0,85.5,0.9,85.5,79.3c0,35.2-46.9,108.6-85.5,159.5
				c-38.6-50.9-85.5-124.2-85.5-159.5C163.5,341,248.2,340,249,340z"/>
		</g>
	</g>
</g>
</svg>
