<?xml version="1.0" encoding="utf-8"?>
<!-- Generator: Adobe Illustrator 19.1.0, SVG Export Plug-In . SVG Version: 6.00 Build 0)  -->
<svg version="1.1" id="Layer_1" xmlns="http://www.w3.org/2000/svg" xmlns:xlink="http://www.w3.org/1999/xlink" x="0px" y="0px"
	 viewBox="0 0 500 425.7" style="enable-background:new 0 0 500 425.7;" xml:space="preserve">
<style type="text/css">
	.st0{fill:#010101;}
</style>
<g>
	<g>
		<g>
			<path class="st0" d="M500.7,425.7L393.7,296l-7.4-9.5h-36.7l-30.6,40c0,0,42,0.1,42,0.1l29.7,47.3H106l27.7-47.3H177l-29-40.1
				h-40l-6.9,9.9L0,425.7H500.7z"/>
		</g>
		<g>
			<path class="st0" d="M285.3,130.8c0-20-16.2-36.3-36.3-36.3c-20,0-36.3,16.3-36.3,36.3c0,20,16.2,36.3,36.3,36.3
				C269.1,167.1,285.3,150.9,285.3,130.8z"/>
		</g>
		<g>
			<path class="st0" d="M237,353.7l1.8,0.8c3.2,1.4,6.7,2.1,10.2,2.1c3.4,0,6.8-0.7,10-2l1.9-0.8c3.9-1.6,7.3-4.2,9.9-7.4
				C282.7,332,386.3,203.8,386.3,131C386.3,34.9,304.2,0,249,0C196,0,111.8,35.6,111.8,131c0,72.8,103.6,201,115.4,215.4
				C229.8,349.6,233.2,352.1,237,353.7z M249,51.7c3.5,0,85.5,0.9,85.5,79.3c0,35.2-46.9,108.6-85.5,159.5
				c-38.6-50.9-85.5-124.2-85.5-159.5C163.5,52.7,248.2,51.7,249,51.7z"/>
		</g>
	</g>
</g>
</svg>
