<?xml version="1.0" encoding="utf-8"?>
<!-- Generator: Adobe Illustrator 19.1.0, SVG Export Plug-In . SVG Version: 6.00 Build 0)  -->
<svg version="1.1" id="Layer_1" xmlns="http://www.w3.org/2000/svg" xmlns:xlink="http://www.w3.org/1999/xlink" x="0px" y="0px"
	 viewBox="0 0 500 571.8" style="enable-background:new 0 0 500 571.8;" xml:space="preserve">
<style type="text/css">
	.st0{fill:#010101;}
</style>
<g>
	<g>
		<g>
			<path class="st0" d="M249.6,567.3c-5.6,0-11.3-1.4-15.5-4.2c-7-5.6-11.3-14.1-11.3-22.5V280c0-9.9,5.6-18.3,14.1-23.9
				c0,0,1.4,0,1.4-1.4l222.6-91.6c8.5-2.8,18.3-2.8,25.4,2.8c7,5.6,11.3,14.1,11.3,22.5v259.2c0,11.3-7,21.1-16.9,25.4L258,564.5
				C256.6,565.9,252.4,567.3,249.6,567.3z M249.6,280C249.6,280,248.2,280,249.6,280l-1.4,259.2l224-90.2V189.8L249.6,280z"/>
			<path d="M249.6,571.8c-6.8,0-13.2-1.8-18-5c-8.4-6.7-13.3-16.5-13.3-26.3V280c0-10.6,5.6-20.5,15.5-27.3v-1.1l225.3-92.7
				c11.6-3.9,22.3-2.6,29.9,3.5c8.1,6.5,13,16.2,13,26v259.2c0,12.8-7.7,24.4-19.6,29.5l-222,91.3
				C257.7,570.5,252.8,571.8,249.6,571.8z M238.7,260.2c-7.4,5.2-11.4,12.1-11.4,19.7v260.6c0,7.1,3.6,14.2,9.6,19
				c3,2,7.7,3.2,12.7,3.2c1.9,0,4.7-1,5.3-1.6l0.6-0.6l0.8-0.3l222.6-91.6c8.4-3.6,14.1-12.1,14.1-21.2V188.4c0-7.1-3.6-14.2-9.6-19
				c-5-4-12.9-4.8-21.1-2.1l-220.6,90.8C241,259.1,239.9,259.9,238.7,260.2z M243.7,545.8l1.4-265.9l3.9,0v-1.5l-1.1-2.6l228.7-92.7
				v268.9L243.7,545.8z M254.1,283l-1.4,249.5l215-86.5V196.5L254.1,283z"/>
		</g>
		<g>
			<path class="st0" d="M191.8,518c-7,0-12.7-5.6-12.7-12.7V246.2c0-14.1,2.8-18.3,15.5-23.9l1.4-1.4l233.8-91.6
				c4.2-1.4,8.5-1.4,12.7,1.4c4.2,2.8,5.6,7,5.6,11.3c0,11.3,9.9,21.1,21.1,21.1c7,0,12.7,5.6,12.7,12.7s-5.6,12.7-12.7,12.7
				c-19.7,0-38-12.7-45.1-29.6l-218.3,85.9c-1.4,0-1.4,1.4-1.4,1.4v259.2C204.5,512.4,198.9,518,191.8,518z"/>
			<path d="M191.8,522.5c-9.5,0-17.2-7.7-17.2-17.2V246.2c0-15.6,3.6-21.4,17.4-27.7l1.5-1.5l234.7-91.9c6.3-2.1,11.9-1.4,16.8,1.9
				c5,3.3,7.6,8.5,7.6,15c0,8.9,7.8,16.6,16.6,16.6c9.5,0,17.2,7.7,17.2,17.2c0,9.5-7.7,17.2-17.2,17.2c-19.5,0-38.4-11.5-47.3-28.4
				l-213,83.8l0,257C209,514.8,201.3,522.5,191.8,522.5z M198.6,224.7l-1.3,1.3l-0.8,0.3c-11.2,5-12.8,7.6-12.8,19.8v259.2
				c0,4.6,3.6,8.2,8.2,8.2c4.6,0,8.2-3.6,8.2-8.2V246.2c0-2.6,1.8-5.3,4.8-5.8l221.9-87.3l1.7,4.1c6.6,15.8,23.4,26.8,40.9,26.8
				c4.6,0,8.2-3.6,8.2-8.2c0-4.6-3.6-8.2-8.2-8.2c-13.6,0-25.6-12-25.6-25.6c0-3.4-1.2-5.9-3.6-7.5c-2.7-1.8-5.3-2-8.8-0.9
				L198.6,224.7z"/>
		</g>
		<g>
			<path class="st0" d="M227.1,287c-26.8,0-47.9-21.1-47.9-47.9c0-7,5.6-12.7,12.7-12.7s12.7,5.6,12.7,12.7
				c0,11.3,9.9,21.1,21.1,21.1c4.2,0,11.3-7,19.7-7c2.8,0-7,16.9-7,19.7C241.1,281.4,234.1,287,227.1,287z"/>
			<path d="M227.1,291.5c-29.4,0-52.4-23-52.4-52.4c0-9.5,7.7-17.2,17.2-17.2c9.5,0,17.2,7.7,17.2,17.2c0,8.9,7.8,16.6,16.6,16.6
				c0.7-0.1,2.9-1.2,4.5-2.1c3.9-2.1,9.2-5,15.3-5h2.5l1.7,2.3c1.9,3,0.5,6.3-3.8,15.5c-0.9,2-2.3,4.9-2.8,6.3
				c1.1,4.3,0.3,8.6-2.1,12C237.8,288.9,232.6,291.5,227.1,291.5z M191.8,230.9c-4.6,0-8.2,3.6-8.2,8.2c0,24.3,19.1,43.4,43.4,43.4
				c2.6,0,5.2-1.2,6.5-3c1-1.4,1.2-3.2,0.5-5.2l-0.2-0.7v-0.7c0-2,1-4.2,3.8-10.2c0.5-1,1.1-2.3,1.6-3.6c-1.7,0.7-3.3,1.6-4.9,2.4
				c-3.1,1.7-5.8,3.2-8.7,3.2c-13.6,0-25.6-12-25.6-25.6C200,234.5,196.4,230.9,191.8,230.9z"/>
		</g>
		<g>
			<path class="st0" d="M239.7,567.3c-31,0-62-28.2-62-59.2c0-7,5.6-12.7,12.7-12.7s12.7,5.6,12.7,12.7c0,16.9,14.1,32.4,29.6,32.4
				c7,0,12.7,4.2,12.7,11.3c0,2.8,11.3,11.3,9.9,14.1C255.2,567.3,248.2,567.3,239.7,567.3z"/>
			<path d="M239.7,571.8c-34.2,0-66.5-30.9-66.5-63.7c0-9.5,7.7-17.2,17.2-17.2c9.5,0,17.2,7.7,17.2,17.2
				c0,14.3,12.2,27.9,25.1,27.9c9.7,0,16.7,6.2,17.2,15c0.6,0.9,2.3,2.7,3.4,3.9c3.9,4.1,7.5,8,6.4,11.9
				C259,571.8,253.1,571.8,239.7,571.8z M190.4,500c-4.6,0-8.2,3.6-8.2,8.2c0,27.6,28.5,54.7,57.5,54.7c2.7,0,5.9,0,8.6-0.1
				c-0.6-0.6-1.1-1.2-1.6-1.7c-3.4-3.6-5.8-6.2-5.8-9.2c0-5-4.4-6.8-8.2-6.8c-17.8,0-34.1-17.6-34.1-36.9
				C198.6,503.6,195,500,190.4,500z"/>
		</g>
	</g>
	<g>
		<path class="st0" d="M93.2,180v259.2c0,1.4,0,1.4,0,4.2c1.4,29.6,26.8,53.5,56.3,53.5c0,0,0,0,1.4,0c4.2,1.4,7,4.2,12.7,4.2
			c0-5.6-1.4-9.9-1.4-14.1l0,0v-2.8v-57.8V225c0,0-1.4-16.9,16.9-23.9L413,109.5c-5.6-4.2-7-7-11.3-8.5c-4.2-2.8-9.9-4.2-15.5-4.2
			c-1.4,0-1.4,0-1.4,0c-12.7,0-22.5-9.9-22.5-22.5c0-4.2-1.4-8.5-5.6-9.9c-4.2-4.2-8.5-4.2-12.7-1.4l-235.2,93
			C91.8,161.7,93.2,180,93.2,180z M138.3,467.3c-11.3-4.2-19.7-15.5-19.7-28.2c0-1.4,0-2.8,0-4.2V212.4c5.6,4.2,12.7,5.6,19.7,7
			V467.3z M142.5,194.1c-11.3,0-19.7-7-22.5-16.9l219.7-87.3c2.8,7,7,12.7,12.7,18.3l-198.6,81.7
			C145.4,192.6,142.5,194.1,142.5,194.1z"/>
		<path d="M168.2,505.6h-4.5c-4.8,0-8.1-1.7-10.8-3c-0.9-0.5-1.8-0.9-2.7-1.2h-0.6c-32,0-59.3-25.9-60.8-57.8l0-4.4v-259
			c-0.5-7.6,2.7-23.1,18.6-28.4L341.9,59c5.9-3.7,12-3.2,17.2,1.6c4.9,2.1,7.7,7.1,7.7,13.7c0,10.1,7.9,18,18,18h1.4
			c6.6,0,12.7,1.7,17.5,4.7c3.2,1.2,5.2,3,7.3,5c1.3,1.2,2.7,2.5,4.7,3.9l6.4,4.8l-241.3,94.5c-15,5.8-14.1,19.3-14.1,19.4l0,262.4
			c0,1.6,0.3,3.3,0.6,5.3c0.4,2.5,0.8,5.4,0.8,8.7V505.6z M349.7,65.6c-1,0-2,0.4-3.2,1.2l-0.8,0.4l-235.2,93
			c-13.5,4.5-12.7,18.8-12.7,19.4l0,0.3v263.4c1.3,26.9,24.6,49,51.9,49h2.1l0.7,0.2c1.7,0.6,3.2,1.3,4.5,2c0.6,0.3,1.2,0.6,1.8,0.9
			c-0.1-0.6-0.2-1.2-0.3-1.7c-0.3-2.2-0.7-4.4-0.7-6.7V225c-0.6-6.6,2.8-21.6,19.8-28.1l226.8-88.8c-1.7-1.5-2.6-2.3-4.1-2.7
			l-1.1-0.5c-3.3-2.2-8-3.5-13-3.5h-1.4c-15.2,0-27-11.9-27-27c0-2.2-0.4-4.9-2.6-5.6l-1-0.3l-0.7-0.7
			C352.1,66.3,350.9,65.6,349.7,65.6z M142.8,473.8l-6.1-2.3c-13.3-5-22.6-18.3-22.6-32.4V203.4l7.2,5.4c4.8,3.6,11.2,4.9,17.9,6.2
			l3.6,0.7l0,3.7V473.8z M123.1,220v219.2c0,8.1,4.2,15.9,10.7,20.7V223.1C130.2,222.3,126.5,221.4,123.1,220z M142.5,198.5
			c-12.8,0-23.4-7.9-26.9-20.2l-1.1-3.9L342.3,84l1.7,4.2c2.4,5.9,6,11.1,11.7,16.8l4.8,4.8L155.5,194c-8.2,2.7-11,4.1-11,4.1
			l-0.9,0.5L142.5,198.5z M125.8,179.7c3.1,5.9,8.8,9.6,15.8,9.9c1.5-0.7,4.8-2,10.8-4l192.4-79.1c-3-3.6-5.4-7.1-7.3-10.9
			L125.8,179.7z"/>
	</g>
	<g>
		<path class="st0" d="M4.5,122.2v259.2c0,1.4,0,1.4,0,4.2c1.4,29.6,26.8,53.5,56.3,53.5c0,0,0,0,1.4,0c4.2,1.4,7,4.2,12.7,4.2
			c0-5.6-1.4-9.9-1.4-14.1l0,0v-2.8v-56.3V168.7c0,0-1.4-16.9,16.9-23.9l232.4-91.6c-1.4-4.2-4.2-7-8.5-8.5
			c-4.2-2.8-9.9-4.2-15.5-4.2c-1.4,0-1.4,0-1.4,0c-12.7,0-22.5-9.9-22.5-22.5c0-4.2-1.4-8.5-5.6-9.9c-5.6-4.2-8.5-4.2-12.7-2.8
			l-235.2,93C4.5,105.3,4.5,122.2,4.5,122.2z M51,411c-11.3-4.2-19.7-15.5-19.7-28.2c0-1.4,0-2.8,0-4.2V156c5.6,4.2,12.7,5.6,19.7,7
			V411z M55.2,136.3c-11.3,0-19.7-7-22.5-16.9l221.2-87.3c2.8,7,7,12.7,12.7,18.3L67.9,132.1C58,136.3,55.2,136.3,55.2,136.3z"/>
		<path d="M79.4,447.9h-4.5c-4.8,0-8.1-1.7-10.8-3c-0.9-0.5-1.8-0.9-2.7-1.2h-0.6c-32,0-59.3-25.9-60.8-57.8l0-4.4V122.2
			c0-0.8,0.2-20,19.7-28.1L255,1.1c5.4-1.8,9.8-1.9,16.5,3c5.1,2,8,7,8,13.9c0,10.1,7.9,18,18,18h1.4c6.6,0,12.7,1.7,17.5,4.7
			c5.2,1.9,8.9,5.7,10.7,11.1l1.3,4L92.1,148.9C77,154.7,78,168.2,78,168.3l0,261c0,1.6,0.3,3.3,0.6,5.3c0.4,2.5,0.8,5.4,0.8,8.7
			V447.9z M260.8,8.9c-0.9,0-1.7,0.3-2.8,0.6L23,102.4C9.1,108.2,9,122.1,9,122.2v263.4c1.3,26.9,24.6,49,51.9,49H63l0.7,0.2
			c1.7,0.6,3.2,1.3,4.5,2c0.6,0.3,1.2,0.6,1.8,0.9c-0.1-0.6-0.2-1.2-0.3-1.7c-0.3-2.2-0.7-4.4-0.7-6.7V168.7
			c-0.6-6.6,2.8-21.6,19.8-28.1l227.5-89.6c-0.9-0.8-2-1.5-3.4-1.9l-1.1-0.5c-3.3-2.2-8.1-3.5-13-3.5h-1.4c-15.2,0-27-11.9-27-27
			c0-2.2-0.4-4.9-2.6-5.6l-0.7-0.2l-0.6-0.4C263.8,9.6,262.2,8.9,260.8,8.9z M55.5,417.5l-6.1-2.3c-13.3-5-22.6-18.3-22.6-32.4V147
			l7.2,5.4c4.8,3.6,11.2,4.9,17.9,6.2l3.6,0.7l0,3.7V417.5z M35.7,163.6v219.2c0,8.1,4.2,15.9,10.7,20.7V166.7
			C42.8,166,39.2,165.1,35.7,163.6z M55.2,140.8c-12.8,0-23.4-7.9-26.9-20.2l-1.1-3.9l229.1-90.5l1.7,4.2c2.4,5.9,6,11.1,11.7,16.8
			l4.8,4.8L69.6,136.2C60,140.3,56.3,140.8,55.2,140.8z M38.5,121.9c3.2,6.1,9.2,9.8,16.6,9.9c0.5-0.1,3.4-0.6,11.1-3.9l192.7-79.3
			c-3-3.6-5.4-7.1-7.3-10.9L38.5,121.9z"/>
	</g>
</g>
</svg>
