<?xml version="1.0" encoding="utf-8"?>
<!-- Generator: Adobe Illustrator 19.1.0, SVG Export Plug-In . SVG Version: 6.00 Build 0)  -->
<svg version="1.1" id="Layer_1" xmlns="http://www.w3.org/2000/svg" xmlns:xlink="http://www.w3.org/1999/xlink" x="0px" y="0px"
	 viewBox="0 259.7 500 482.3" style="enable-background:new 0 259.7 500 482.3;" xml:space="preserve">
<style type="text/css">
	.st0{fill:#C85E28;}
</style>
<path class="st0" d="M44.4,598.7c-8.4,8.6-24,6.5-34.8-4.5l0,0c-10.8-11-12.8-26.9-4.4-35.5l121.6-124c8.4-8.6,24-6.6,34.8,4.5l0,0
	c10.8,11,12.8,26.9,4.4,35.5L44.4,598.7z"/>
<path class="st0" d="M220.7,259.7c-66.6,0-120.5,54-120.5,120.5s53.9,120.5,120.5,120.5s120.5-54,120.5-120.5
	S287.2,259.7,220.7,259.7z M220.7,452.8c-40.1,0-72.5-32.5-72.5-72.5s32.4-72.6,72.5-72.6s72.5,32.5,72.5,72.5
	C293.2,420.3,260.7,452.8,220.7,452.8z"/>
<g>
	<rect x="242.2" y="621.7" class="st0" width="174.6" height="19.2"/>
	<rect x="242.2" y="566.7" class="st0" width="174.6" height="19.2"/>
	<rect x="242.2" y="511.7" class="st0" width="174.6" height="19.2"/>
	<path class="st0" d="M269.7,324l-1.5,1.5c15.3,13.3,25,32.8,25,54.7c0,40.1-32.5,72.5-72.5,72.5c-21.2,0-40.2-9.2-53.5-23.7
		L157,439.5V742h343.1V324H269.7L269.7,324z M450.6,692.5H206.5V456h88.7v-82.5h155.4V692.5z"/>
</g>
</svg>
