<?xml version="1.0" encoding="utf-8"?>
<!-- Generator: Adobe Illustrator 19.1.0, SVG Export Plug-In . SVG Version: 6.00 Build 0)  -->
<svg version="1.1" id="Layer_1" xmlns="http://www.w3.org/2000/svg" xmlns:xlink="http://www.w3.org/1999/xlink" x="0px" y="0px"
	 viewBox="0 0 500 482.3" style="enable-background:new 0 0 500 482.3;" xml:space="preserve">
<style type="text/css">
	.st0{fill:#010101;}
</style>
<path class="st0" d="M44.4,339c-8.4,8.6-24,6.5-34.8-4.5l0,0c-10.8-11-12.8-26.9-4.4-35.5l121.6-124c8.4-8.6,24-6.6,34.8,4.5l0,0
	c10.8,11,12.8,26.9,4.4,35.5L44.4,339z"/>
<path class="st0" d="M220.7,0c-66.6,0-120.5,54-120.5,120.5S154.1,241,220.7,241s120.5-54,120.5-120.5C341.2,54,287.2,0,220.7,0z
	 M220.7,193.1c-40.1,0-72.5-32.5-72.5-72.5S180.6,48,220.7,48s72.5,32.5,72.5,72.5C293.2,160.6,260.7,193.1,220.7,193.1z"/>
<g>
	<rect x="242.2" y="362" class="st0" width="174.6" height="19.2"/>
	<rect x="242.2" y="307" class="st0" width="174.6" height="19.2"/>
	<rect x="242.2" y="252" class="st0" width="174.6" height="19.2"/>
	<path class="st0" d="M269.7,64.3l-1.5,1.5c15.3,13.3,25,32.8,25,54.7c0,40.1-32.5,72.5-72.5,72.5c-21.2,0-40.2-9.2-53.5-23.7
		L157,179.8v302.5h343.1v-418H269.7z M450.6,432.8H206.5V196.3h88.7v-82.5h155.4V432.8z"/>
</g>
</svg>
