<?xml version="1.0" encoding="utf-8"?>
<!-- Generator: Adobe Illustrator 19.1.0, SVG Export Plug-In . SVG Version: 6.00 Build 0)  -->
<svg version="1.1" id="Layer_1" xmlns="http://www.w3.org/2000/svg" xmlns:xlink="http://www.w3.org/1999/xlink" x="0px" y="0px"
	 viewBox="0 0 500 499.5" style="enable-background:new 0 0 500 499.5;" xml:space="preserve">
<style type="text/css">
	.st0{fill:#010101;}
</style>
<path class="st0" d="M490.5,181.8l-64.8,64.8L252.9,73.8L317.7,9c12-12,31.3-12,43.2,0l129.6,129.6
	C502.4,150.5,502.4,169.8,490.5,181.8z M231.3,95.4l-140.4,54c-3.7,1.7-10.1,4.7-13.5,8.1c-2.7,2.7-7.1,8.7-8.2,13.5L0,477.9
	l134.1-134.2c-5.5-9.3-9-20.1-9-31.7c0-34.5,27.9-62.4,62.4-62.4s62.4,28,62.4,62.4s-27.9,62.4-62.4,62.4c-11.7,0-22.5-3.4-31.9-9
	L21.6,499.5l306.9-69.3c4.4-1.2,11-4.5,14-7.6c2.7-2.7,5.7-8,7.6-14l54-140.4L231.3,95.4z"/>
</svg>
