<?xml version="1.0" encoding="utf-8"?>
<!-- Generator: Adobe Illustrator 19.1.0, SVG Export Plug-In . SVG Version: 6.00 Build 0)  -->
<svg version="1.1" id="Layer_1" xmlns="http://www.w3.org/2000/svg" xmlns:xlink="http://www.w3.org/1999/xlink" x="0px" y="0px"
	 viewBox="0 0 500 521.7" style="enable-background:new 0 0 500 521.7;" xml:space="preserve">
<style type="text/css">
	.st0{fill:#010101;}
	.st1{fill:#FFFFFF;}
</style>
<g>
	<g>
		
			<rect x="408.1" y="339.9" transform="matrix(-0.7433 -0.669 0.669 -0.7433 549.1394 910.4671)" class="st0" width="82.4" height="20"/>
		<path d="M473.9,398l-75-67.5l25.8-28.7l75,67.5L473.9,398z M425.1,329l47.4,42.7l1-1.1L426,328L425.1,329z"/>
	</g>
</g>
<g>
	<g>
		
			<rect x="40" y="307.7" transform="matrix(-0.6876 -0.7261 0.7261 -0.6876 -169.0689 625.3127)" class="st0" width="20" height="82.6"/>
		<path d="M26.5,397.8L0,369.8l73.5-69.6l26.5,28L26.5,397.8z M26.2,370.5l1,1l46.5-44l-1-1L26.2,370.5z"/>
	</g>
</g>
<g>
	<g>
		<path class="st0" d="M459.9,512.4H40c-16.5,0-30-13.5-30-30v-115h160v10c0,24.8,20.2,45,45,45h70c24.8,0,45-20.2,45-45v-10h160
			v115C489.9,498.9,476.4,512.4,459.9,512.4z M30,387.4v95c0,5.5,4.5,10,10,10h419.9c5.5,0,10-4.5,10-10v-95H349.1
			c-4.8,31.1-31.8,55-64.2,55h-70c-32.4,0-59.4-23.9-64.2-55H30z"/>
		<path d="M459.9,521.7H40c-21.7,0-39.3-17.6-39.3-39.3V358.1h178.5v19.3c0,19.7,16,35.7,35.7,35.7h70c19.7,0,35.7-16,35.7-35.7
			v-19.3h178.5v124.3C499.2,504,481.5,521.7,459.9,521.7z M19.3,376.7v105.7c0,11.4,9.3,20.7,20.7,20.7h419.9
			c11.4,0,20.7-9.3,20.7-20.7V376.7H339.2v0.7c0,29.9-24.3,54.3-54.3,54.3h-70c-29.9,0-54.3-24.3-54.3-54.3v-0.7H19.3z M459.9,501.7
			H40c-10.6,0-19.3-8.6-19.3-19.3V378.1h138l1.2,7.9c4.2,26.9,27.8,47.1,55,47.1h70c27.2,0,50.9-20.3,55-47.1l1.2-7.9h138v104.3
			C479.2,493,470.5,501.7,459.9,501.7z M39.3,396.7v85.7c0,0.4,0.3,0.7,0.7,0.7h419.9c0.4,0,0.7-0.3,0.7-0.7v-85.7h-104
			c-8.6,31.8-38.1,55-71.7,55h-70c-33.6,0-63.1-23.1-71.7-55H39.3z"/>
	</g>
</g>
<g>
	<g>
		<polygon class="st0" points="429.9,377.4 409.9,377.4 409.9,122.5 90,122.5 90,377.4 70,377.4 70,102.5 429.9,102.5 		"/>
		<path d="M439.2,386.7h-38.6V131.7H99.2v254.9H60.7V93.2h378.5V386.7z M419.2,368.1h1.4V111.8H79.3v256.4h1.4V113.2h338.5V368.1z"
			/>
	</g>
</g>
<g>
	<g>
		<path class="st0" d="M249.9,357.4c-41.3,0-75-33.6-75-75s33.6-75,75-75s75,33.6,75,75S291.3,357.4,249.9,357.4z M249.9,227.4
			c-30.3,0-55,24.7-55,55s24.7,55,55,55s55-24.7,55-55S280.3,227.4,249.9,227.4z"/>
		<path d="M249.9,366.7c-46.5,0-84.3-37.8-84.3-84.3s37.8-84.3,84.3-84.3s84.3,37.8,84.3,84.3S296.4,366.7,249.9,366.7z
			 M249.9,216.7c-36.2,0-65.7,29.5-65.7,65.7c0,36.2,29.5,65.7,65.7,65.7s65.7-29.5,65.7-65.7C315.6,246.2,286.2,216.7,249.9,216.7z
			 M249.9,346.7c-35.4,0-64.3-28.8-64.3-64.3c0-35.4,28.8-64.3,64.3-64.3c35.4,0,64.3,28.8,64.3,64.3
			C314.2,317.9,285.4,346.7,249.9,346.7z M249.9,236.7c-25.2,0-45.7,20.5-45.7,45.7c0,25.2,20.5,45.7,45.7,45.7
			c25.2,0,45.7-20.5,45.7-45.7C295.6,257.2,275.1,236.7,249.9,236.7z"/>
	</g>
</g>
<g>
	<g>
		<path d="M373.8,91.4H126V0h247.8V91.4z M153.9,63.6H346V27.8H153.9V63.6z"/>
	</g>
</g>
<g>
	<g>
		<polygon class="st1" points="394.9,112.8 374.9,112.8 125,112.8 105,112.8 105,57.8 394.9,57.8 		"/>
		<path d="M408.8,126.8H91V43.9h317.8V126.8z M118.9,98.9H381V71.8H118.9V98.9z"/>
	</g>
</g>
</svg>
