<?xml version="1.0" encoding="utf-8"?>
<!-- Generator: Adobe Illustrator 19.1.0, SVG Export Plug-In . SVG Version: 6.00 Build 0)  -->
<svg version="1.1" id="Layer_1" xmlns="http://www.w3.org/2000/svg" xmlns:xlink="http://www.w3.org/1999/xlink" x="0px" y="0px"
	 viewBox="0 240.3 500 521.7" style="enable-background:new 0 240.3 500 521.7;" xml:space="preserve">
<style type="text/css">
	.st0{fill:#C85E28;}
	.st1{fill:#FFFFFF;}
</style>
<g>
	<g>
		
			<rect x="408.1" y="580.1" transform="matrix(0.7433 0.669 -0.669 0.7433 510.1028 -149.0529)" class="st0" width="82.4" height="20"/>
		<path class="st0" d="M473.9,638.3l-75-67.5l25.8-28.7l75,67.5L473.9,638.3z M425.1,569.3l47.4,42.7l1-1.1L426,568.3L425.1,569.3z"
			/>
	</g>
</g>
<g>
	<g>
		<rect x="40" y="548" transform="matrix(0.6876 0.7261 -0.7261 0.6876 443.5209 147.8357)" class="st0" width="20" height="82.6"/>
		<path class="st0" d="M26.5,638.1L0,610.1l73.5-69.6l26.5,28L26.5,638.1z M26.2,610.8l1,1l46.5-44l-1-1L26.2,610.8z"/>
	</g>
</g>
<g>
	<g>
		<path class="st0" d="M459.9,752.7H40c-16.5,0-30-13.5-30-30v-115h160v10c0,24.8,20.2,45,45,45h70c24.8,0,45-20.2,45-45v-10h160
			v115C489.9,739.2,476.4,752.7,459.9,752.7z M30,627.7v95c0,5.5,4.5,10,10,10h419.9c5.5,0,10-4.5,10-10v-95H349.1
			c-4.8,31.1-31.8,55-64.2,55h-70c-32.4,0-59.4-23.9-64.2-55H30z"/>
		<path class="st0" d="M459.9,762H40c-21.7,0-39.3-17.6-39.3-39.3V598.4h178.5v19.3c0,19.7,16,35.7,35.7,35.7h70
			c19.7,0,35.7-16,35.7-35.7v-19.3h178.5v124.3C499.2,744.3,481.5,762,459.9,762z M19.3,617v105.7c0,11.4,9.3,20.7,20.7,20.7h419.9
			c11.4,0,20.7-9.3,20.7-20.7V617H339.2v0.7c0,29.9-24.3,54.3-54.3,54.3h-70c-29.9,0-54.3-24.3-54.3-54.3V617H19.3z M459.9,742H40
			c-10.6,0-19.3-8.6-19.3-19.3V618.4h138l1.2,7.9c4.2,26.9,27.8,47.1,55,47.1h70c27.2,0,50.9-20.3,55-47.1l1.2-7.9h138v104.3
			C479.2,733.3,470.5,742,459.9,742z M39.3,637v85.7c0,0.4,0.3,0.7,0.7,0.7h419.9c0.4,0,0.7-0.3,0.7-0.7V637h-104
			c-8.6,31.8-38.1,55-71.7,55h-70c-33.6,0-63.1-23.1-71.7-55H39.3z"/>
	</g>
</g>
<g>
	<g>
		<polygon class="st0" points="429.9,617.7 409.9,617.7 409.9,362.8 90,362.8 90,617.7 70,617.7 70,342.8 429.9,342.8 		"/>
		<path class="st0" d="M439.2,627h-38.6V372H99.2v254.9H60.7V333.5h378.5V627z M419.2,608.4h1.4V352.1H79.3v256.4h1.4v-255h338.5
			V608.4z"/>
	</g>
</g>
<g>
	<g>
		<path class="st0" d="M249.9,597.7c-41.3,0-75-33.6-75-75c0-41.4,33.6-75,75-75s75,33.6,75,75C324.9,564.1,291.3,597.7,249.9,597.7
			z M249.9,467.7c-30.3,0-55,24.7-55,55c0,30.3,24.7,55,55,55s55-24.7,55-55C304.9,492.4,280.3,467.7,249.9,467.7z"/>
		<path class="st0" d="M249.9,607c-46.5,0-84.3-37.8-84.3-84.3s37.8-84.3,84.3-84.3s84.3,37.8,84.3,84.3S296.4,607,249.9,607z
			 M249.9,457c-36.2,0-65.7,29.5-65.7,65.7c0,36.2,29.5,65.7,65.7,65.7s65.7-29.5,65.7-65.7C315.6,486.5,286.2,457,249.9,457z
			 M249.9,587c-35.4,0-64.3-28.8-64.3-64.3c0-35.4,28.8-64.3,64.3-64.3c35.4,0,64.3,28.8,64.3,64.3C314.2,558.2,285.4,587,249.9,587
			z M249.9,477c-25.2,0-45.7,20.5-45.7,45.7c0,25.2,20.5,45.7,45.7,45.7s45.7-20.5,45.7-45.7C295.6,497.5,275.1,477,249.9,477z"/>
	</g>
</g>
<g>
	<g>
		<path class="st0" d="M373.8,331.7H126v-91.4h247.8V331.7z M153.9,303.9H346v-35.8H153.9V303.9z"/>
	</g>
</g>
<g>
	<g>
		<polygon class="st1" points="394.9,353.1 374.9,353.1 125,353.1 105,353.1 105,298.1 394.9,298.1 		"/>
		<path class="st0" d="M408.8,367.1H91v-82.9h317.8V367.1z M118.9,339.2H381v-27.1H118.9V339.2z"/>
	</g>
</g>
</svg>
