<?xml version="1.0" encoding="utf-8"?>
<!-- Generator: Adobe Illustrator 19.1.0, SVG Export Plug-In . SVG Version: 6.00 Build 0)  -->
<svg version="1.1" id="Layer_1" xmlns="http://www.w3.org/2000/svg" xmlns:xlink="http://www.w3.org/1999/xlink" x="0px" y="0px"
	 viewBox="0 228.3 500 545.7" style="enable-background:new 0 228.3 500 545.7;" xml:space="preserve">
<style type="text/css">
	.st0{fill:#C85E28;}
</style>
<g>
	<g>
		<path class="st0" d="M463,249.5h-8.2c5.2,8.9,8.2,19.3,8.2,30.3v30.3V692v30.3c0,11.1-3,21.4-8.2,30.3h8.2
			c16.8,0,30.3-13.6,30.3-30.3V692V310.2v-30.3C493.4,263.1,479.8,249.5,463,249.5z"/>
		<path class="st0" d="M463,759.1h-19.3l5.5-9.6c4.8-8.3,7.3-17.7,7.3-27.2V279.9c0-9.5-2.5-18.9-7.3-27.2l-5.5-9.6H463
			c20.2,0,36.7,16.5,36.7,36.7v442.6C499.7,742.7,483.3,759.1,463,759.1z M464.9,255.9c2.9,7.6,4.5,15.7,4.5,23.9v442.6
			c0,8.2-1.5,16.3-4.5,23.9c12.3-1,22.1-11.3,22.1-23.9V279.9C487,267.3,477.3,256.9,464.9,255.9z"/>
	</g>
</g>
<g>
	<g>
		<path class="st0" d="M385.4,767.6H81.9c-41.7,0-75.5-33.9-75.5-75.5V310.2c0-41.7,33.9-75.5,75.5-75.5h303.5
			c24.9,0,45.2,20.3,45.2,45.2v442.6C430.6,747.3,410.3,767.6,385.4,767.6z M81.9,264.4c-25.3,0-45.8,20.6-45.8,45.8v381.9
			c0,25.3,20.6,45.8,45.8,45.8h303.5c8.5,0,15.5-7,15.5-15.5V279.9c0-8.5-7-15.5-15.5-15.5H81.9z"/>
		<path class="st0" d="M385.4,774H81.9C36.7,774,0,737.2,0,692.1V310.2c0-45.2,36.7-81.9,81.9-81.9h303.5
			c28.4,0,51.6,23.1,51.6,51.6v442.6C436.9,750.8,413.8,774,385.4,774z M81.9,241c-38.1,0-69.2,31-69.2,69.2v381.9
			c0,38.1,31,69.2,69.2,69.2h303.5c21.4,0,38.8-17.4,38.8-38.8V279.9c0-21.4-17.4-38.8-38.8-38.8H81.9V241z M385.4,744.3H81.9
			c-28.8,0-52.2-23.4-52.2-52.2V310.2c0-28.8,23.4-52.2,52.2-52.2h303.5c12.1,0,21.9,9.8,21.9,21.9v442.6
			C407.2,734.5,397.4,744.3,385.4,744.3z M81.9,270.7c-21.8,0-39.5,17.7-39.5,39.5v381.9c0,21.8,17.7,39.5,39.5,39.5h303.5
			c5,0,9.1-4.1,9.1-9.1V279.9c0-5-4.1-9.1-9.1-9.1H81.9V270.7z"/>
	</g>
</g>
<g>
	<g>
		<path class="st0" d="M362.3,478.2H83.5v-67.6h278.8V478.2z M113.2,448.5h219.4v-8.2H113.2V448.5z"/>
	</g>
</g>
<g>
	<g>
		<path class="st0" d="M362.3,398H83.5v-67.6h278.8V398z M113.2,368.3h219.4v-8.2H113.2V368.3z"/>
	</g>
</g>
</svg>
