<?xml version="1.0" encoding="utf-8"?>
<!-- Generator: Adobe Illustrator 19.1.0, SVG Export Plug-In . SVG Version: 6.00 Build 0)  -->
<svg version="1.1" id="Layer_1" xmlns="http://www.w3.org/2000/svg" xmlns:xlink="http://www.w3.org/1999/xlink" x="0px" y="0px"
	 viewBox="0 0 500 545.7" style="enable-background:new 0 0 500 545.7;" xml:space="preserve">
<style type="text/css">
	.st0{fill:#010101;}
</style>
<g>
	<g>
		<path class="st0" d="M463,21.2h-8.2c5.2,8.9,8.2,19.3,8.2,30.3v30.3v381.9v30.3c0,11.1-3,21.4-8.2,30.3h8.2
			c16.8,0,30.3-13.6,30.3-30.3v-30.3V81.9V51.6C493.4,34.8,479.8,21.2,463,21.2z"/>
		<path d="M463,530.8h-19.3l5.5-9.6c4.8-8.3,7.3-17.7,7.3-27.2V51.6c0-9.5-2.5-18.9-7.3-27.2l-5.5-9.6H463
			c20.2,0,36.7,16.5,36.7,36.7v442.6C499.7,514.4,483.3,530.8,463,530.8z M464.9,27.6c2.9,7.6,4.5,15.7,4.5,23.9v442.6
			c0,8.2-1.5,16.3-4.5,23.9c12.3-1,22.1-11.3,22.1-23.9V51.6C487,39,477.3,28.6,464.9,27.6z"/>
	</g>
</g>
<g>
	<g>
		<path d="M385.4,539.3H81.9c-41.7,0-75.5-33.9-75.5-75.5V81.9c0-41.7,33.9-75.5,75.5-75.5h303.5c24.9,0,45.2,20.3,45.2,45.2v442.6
			C430.6,519,410.3,539.3,385.4,539.3z M81.9,36.1c-25.3,0-45.8,20.6-45.8,45.8v381.9c0,25.3,20.6,45.8,45.8,45.8h303.5
			c8.5,0,15.5-7,15.5-15.5V51.6c0-8.5-7-15.5-15.5-15.5H81.9z"/>
		<path d="M385.4,545.7H81.9C36.7,545.7,0,508.9,0,463.8V81.9C0,36.7,36.7,0,81.9,0h303.5c28.4,0,51.6,23.1,51.6,51.6v442.6
			C436.9,522.5,413.8,545.7,385.4,545.7z M81.9,12.7c-38.1,0-69.2,31-69.2,69.2v381.9c0,38.1,31,69.2,69.2,69.2h303.5
			c21.4,0,38.8-17.4,38.8-38.8V51.6c0-21.4-17.4-38.8-38.8-38.8H81.9z M385.4,516H81.9c-28.8,0-52.2-23.4-52.2-52.2V81.9
			c0-28.8,23.4-52.2,52.2-52.2h303.5c12.1,0,21.9,9.8,21.9,21.9v442.6C407.2,506.2,397.4,516,385.4,516z M81.9,42.4
			c-21.8,0-39.5,17.7-39.5,39.5v381.9c0,21.8,17.7,39.5,39.5,39.5h303.5c5,0,9.1-4.1,9.1-9.1V51.6c0-5-4.1-9.1-9.1-9.1H81.9z"/>
	</g>
</g>
<g>
	<g>
		<path d="M362.3,249.9H83.5v-67.6h278.8V249.9z M113.2,220.2h219.4V212H113.2V220.2z"/>
	</g>
</g>
<g>
	<g>
		<path d="M362.3,169.7H83.5v-67.6h278.8V169.7z M113.2,140h219.4v-8.2H113.2V140z"/>
	</g>
</g>
</svg>
